<?xml version="1.0" encoding="UTF-8" standalone="no"?>
<!DOCTYPE svg PUBLIC "-//W3C//DTD SVG 1.1//EN" "http://www.w3.org/Graphics/SVG/1.1/DTD/svg11.dtd">
<svg width="100%" height="100%" viewBox="0 0 31 31" version="1.1" xmlns="http://www.w3.org/2000/svg" xmlns:xlink="http://www.w3.org/1999/xlink" xml:space="preserve" xmlns:serif="http://www.serif.com/" style="fill-rule:evenodd;clip-rule:evenodd;stroke-linejoin:round;stroke-miterlimit:2;">
    <g transform="matrix(1,0,0,1,-504.736,-154.885)">
        <g transform="matrix(1,0,0,1,519.531,109.608)">
            <g transform="matrix(0.882938,0,0,1.01259,-239.21,28.3389)">
                <path d="M288.257,18.628C288.257,18.124 288.027,17.641 287.618,17.284C287.21,16.928 286.655,16.728 286.077,16.728L256.347,16.728C255.769,16.728 255.215,16.928 254.806,17.284C254.397,17.641 254.168,18.124 254.168,18.628L254.168,45.064C254.168,45.568 254.397,46.051 254.806,46.407C255.215,46.764 255.769,46.964 256.347,46.964L286.077,46.964C286.655,46.964 287.21,46.764 287.618,46.407C288.027,46.051 288.257,45.568 288.257,45.064L288.257,18.628Z" style="fill:rgb(7,131,104);"/>
            </g>
        </g>
        <g transform="matrix(1,0,0,1,519.531,109.608)">
            <g transform="matrix(1,0,0,1,-560.751,-109.608)">
                <path d="M572.447,171.712C571.677,177.312 566.868,181.631 561.059,181.631C554.714,181.631 549.564,176.48 549.564,170.136C549.564,164.345 553.854,159.549 559.427,158.756L559.427,161.248C555.218,162.017 552.024,165.706 552.024,170.136C552.024,175.122 556.072,179.171 561.059,179.171C565.508,179.171 569.21,175.948 569.957,171.712L572.447,171.712ZM559.736,168.56L555.683,168.56L555.683,166.044L566.435,166.044L566.435,168.56L562.382,168.56L562.382,176.116L559.736,176.116L559.736,168.56ZM569.957,168.56C569.304,164.854 566.389,161.924 562.691,161.248L562.691,158.756C567.749,159.476 571.751,163.494 572.447,168.56L569.957,168.56Z" style="fill:white;"/>
            </g>
        </g>
    </g>
</svg>
