<?xml version="1.0" encoding="UTF-8" standalone="no"?>
<!DOCTYPE svg PUBLIC "-//W3C//DTD SVG 1.1//EN" "http://www.w3.org/Graphics/SVG/1.1/DTD/svg11.dtd">
<svg width="100%" height="100%" viewBox="0 0 29 30" version="1.1" xmlns="http://www.w3.org/2000/svg" xmlns:xlink="http://www.w3.org/1999/xlink" xml:space="preserve" xmlns:serif="http://www.serif.com/" style="fill-rule:evenodd;clip-rule:evenodd;stroke-linejoin:round;stroke-miterlimit:2;">
    <g transform="matrix(1,0,0,1,-505.697,-159.286)">
        <g transform="matrix(1,0,0,1,519.531,42.2366)">
            <g transform="matrix(0.850714,0,0,0.975634,-230.058,100.729)">
                <path d="M288.257,18.628C288.257,18.124 288.027,17.641 287.618,17.284C287.21,16.928 286.655,16.728 286.077,16.728L256.347,16.728C255.769,16.728 255.215,16.928 254.806,17.284C254.397,17.641 254.168,18.124 254.168,18.628L254.168,45.064C254.168,45.568 254.397,46.051 254.806,46.407C255.215,46.764 255.769,46.964 256.347,46.964L286.077,46.964C286.655,46.964 287.21,46.764 287.618,46.407C288.027,46.051 288.257,45.568 288.257,45.064L288.257,18.628Z" style="fill:rgb(7,131,104);"/>
            </g>
            <g transform="matrix(1,0,0,1,-519.531,-42.2366)">
                <path d="M531.05,175.703C530.256,180.997 525.685,185.06 520.172,185.06C514.101,185.06 509.172,180.131 509.172,174.06C509.172,168.556 513.223,163.991 518.504,163.186L518.504,165.753C514.626,166.529 511.7,169.955 511.7,174.06C511.7,178.736 515.496,182.532 520.172,182.532C524.286,182.532 527.719,179.594 528.484,175.703L531.05,175.703ZM518.793,172.417L515.089,172.417L515.089,170.071L525.255,170.071L525.255,172.417L521.552,172.417L521.552,179.655L518.793,179.655L518.793,172.417ZM528.484,172.417C527.825,169.067 525.187,166.422 521.84,165.753L521.84,163.186C526.585,163.909 530.338,167.669 531.05,172.417L528.484,172.417Z" style="fill:white;"/>
            </g>
        </g>
    </g>
</svg>
