<?xml version="1.0" encoding="UTF-8" standalone="no"?>
<!DOCTYPE svg PUBLIC "-//W3C//DTD SVG 1.1//EN" "http://www.w3.org/Graphics/SVG/1.1/DTD/svg11.dtd">
<svg width="100%" height="100%" viewBox="0 0 24 24" version="1.1" xmlns="http://www.w3.org/2000/svg" xmlns:xlink="http://www.w3.org/1999/xlink" xml:space="preserve" xmlns:serif="http://www.serif.com/" style="fill-rule:evenodd;clip-rule:evenodd;stroke-linejoin:round;stroke-miterlimit:2;">
    <g transform="matrix(1,0,0,1,-407.366,-343.078)">
        <g transform="matrix(0.541789,0,0,0.541789,294.16,163.202)">
            <path d="M252.91,335.694C252.91,334.715 252.522,333.776 251.829,333.084C251.137,332.391 250.198,332.003 249.219,332.003L212.639,332.003C211.66,332.003 210.721,332.391 210.029,333.084C209.337,333.776 208.948,334.715 208.948,335.694L208.948,372.274C208.948,373.253 209.337,374.192 210.029,374.884C210.721,375.577 211.66,375.965 212.639,375.965L249.219,375.965C250.198,375.965 251.137,375.577 251.829,374.884C252.522,374.192 252.91,373.253 252.91,372.274L252.91,335.694Z" style="fill:rgb(7,131,104);"/>
        </g>
        <g transform="matrix(3.03811,0,0,3.03811,-845.176,-707.606)">
            <g transform="matrix(8,0,0,8,413.806,352.067)">
                <path d="M0.56,-0.578L0.582,-0.405L0.521,-0.4L0.482,-0.513C0.476,-0.514 0.469,-0.515 0.462,-0.515C0.455,-0.515 0.447,-0.516 0.438,-0.516L0.385,-0.516C0.378,-0.516 0.372,-0.515 0.368,-0.514L0.367,-0.405C0.366,-0.377 0.366,-0.349 0.366,-0.32L0.366,-0.229C0.366,-0.193 0.367,-0.16 0.367,-0.131C0.368,-0.102 0.368,-0.079 0.369,-0.064L0.454,-0.051L0.451,0L0.147,0L0.145,-0.051L0.229,-0.064C0.23,-0.079 0.231,-0.102 0.231,-0.131C0.232,-0.16 0.232,-0.193 0.232,-0.229L0.232,-0.32C0.232,-0.349 0.232,-0.377 0.232,-0.405C0.232,-0.433 0.231,-0.457 0.231,-0.478C0.231,-0.498 0.231,-0.51 0.23,-0.514C0.227,-0.515 0.221,-0.516 0.213,-0.516L0.159,-0.516C0.151,-0.516 0.143,-0.515 0.135,-0.515C0.127,-0.515 0.12,-0.514 0.113,-0.513L0.076,-0.398L0.016,-0.404L0.036,-0.578C0.043,-0.578 0.052,-0.578 0.064,-0.577C0.076,-0.576 0.089,-0.576 0.102,-0.575C0.115,-0.575 0.128,-0.574 0.141,-0.574C0.154,-0.573 0.165,-0.573 0.174,-0.573L0.422,-0.573C0.431,-0.573 0.442,-0.573 0.454,-0.574C0.466,-0.574 0.479,-0.575 0.493,-0.575C0.507,-0.576 0.52,-0.576 0.531,-0.577C0.543,-0.578 0.552,-0.578 0.56,-0.578Z" style="fill:white;fill-rule:nonzero;"/>
            </g>
        </g>
    </g>
</svg>
