<?xml version="1.0" encoding="UTF-8" standalone="no"?>
<!DOCTYPE svg PUBLIC "-//W3C//DTD SVG 1.1//EN" "http://www.w3.org/Graphics/SVG/1.1/DTD/svg11.dtd">
<svg width="100%" height="100%" viewBox="0 0 32 32" version="1.1" xmlns="http://www.w3.org/2000/svg" xmlns:xlink="http://www.w3.org/1999/xlink" xml:space="preserve" xmlns:serif="http://www.serif.com/" style="fill-rule:evenodd;clip-rule:evenodd;stroke-linecap:square;stroke-miterlimit:2;">
    <g transform="matrix(1,0,0,1,-491.552,-16.7531)">
        <g>
            <g transform="matrix(0.917599,0,0,1.05234,258.328,-0.850009)">
                <path d="M288.257,18.628C288.257,18.124 288.027,17.641 287.618,17.284C287.21,16.928 286.655,16.728 286.077,16.728C279.929,16.728 262.496,16.728 256.347,16.728C255.769,16.728 255.215,16.928 254.806,17.284C254.397,17.641 254.168,18.124 254.168,18.628C254.168,24.063 254.168,39.629 254.168,45.064C254.168,45.568 254.397,46.051 254.806,46.407C255.215,46.764 255.769,46.964 256.347,46.964C262.496,46.964 279.929,46.964 286.077,46.964C286.655,46.964 287.21,46.764 287.618,46.407C288.027,46.051 288.257,45.568 288.257,45.064C288.257,39.629 288.257,24.063 288.257,18.628Z" style="fill:rgb(7,131,104);"/>
            </g>
            <g transform="matrix(1,0,0,1,91.0335,0.0106698)">
                <path d="M414.668,20.518L414.668,23.026C410.043,23.762 406.503,27.773 406.503,32.604C406.503,37.957 410.849,42.303 416.202,42.303C421.03,42.303 425.04,38.766 425.779,34.145L428.287,34.145C427.529,40.141 422.403,44.786 416.202,44.786C409.479,44.786 404.02,39.327 404.02,32.604C404.02,26.4 408.668,21.273 414.668,20.518ZM414.886,30.207L410.386,30.207L410.386,27.689L421.986,27.689L421.986,30.207L417.486,30.207L417.486,39.6L414.886,39.6L414.886,30.207ZM417.868,20.536C423.328,21.284 427.641,25.657 428.297,31.145L425.791,31.145C425.169,27.029 421.956,23.757 417.868,23.048L417.868,20.536Z" style="fill:white;stroke:white;stroke-width:0.1px;"/>
            </g>
        </g>
    </g>
</svg>
