<?xml version="1.0" encoding="UTF-8" standalone="no"?>
<!DOCTYPE svg PUBLIC "-//W3C//DTD SVG 1.1//EN" "http://www.w3.org/Graphics/SVG/1.1/DTD/svg11.dtd">
<svg width="100%" height="100%" viewBox="0 0 32 32" version="1.1" xmlns="http://www.w3.org/2000/svg" xmlns:xlink="http://www.w3.org/1999/xlink" xml:space="preserve" xmlns:serif="http://www.serif.com/" style="fill-rule:evenodd;clip-rule:evenodd;stroke-miterlimit:2;">
    <g transform="matrix(1,0,0,1,-202.86,-16.7531)">
        <g>
            <g transform="matrix(0.917599,0,0,1.05234,-30.3639,-0.850009)">
                <path d="M288.257,18.628C288.257,18.124 288.027,17.641 287.618,17.284C287.21,16.928 286.655,16.728 286.077,16.728C279.929,16.728 262.496,16.728 256.347,16.728C255.769,16.728 255.215,16.928 254.806,17.284C254.397,17.641 254.168,18.124 254.168,18.628C254.168,24.063 254.168,39.629 254.168,45.064C254.168,45.568 254.397,46.051 254.806,46.407C255.215,46.764 255.769,46.964 256.347,46.964C262.496,46.964 279.929,46.964 286.077,46.964C286.655,46.964 287.21,46.764 287.618,46.407C288.027,46.051 288.257,45.568 288.257,45.064C288.257,39.629 288.257,24.063 288.257,18.628Z" style="fill:rgb(7,131,104);"/>
            </g>
            <g transform="matrix(1.02721,0,0,1.02721,-60.453,-41.1217)">
                <path d="M266.528,82.471C262.532,80.594 259.763,76.533 259.763,71.83C259.763,65.346 265.027,60.082 271.511,60.082C277.996,60.082 283.26,65.346 283.26,71.83C283.26,78.314 277.996,83.578 271.511,83.578C271.08,83.578 270.654,83.555 270.234,83.51L270.234,72.028L265.991,72.028L265.991,69.176L277.032,69.176L277.032,72.028L272.788,72.028L272.788,80.848L272.904,80.83C277.27,80.159 280.618,76.382 280.618,71.83C280.618,66.804 276.537,62.723 271.511,62.723C266.486,62.723 262.405,66.804 262.405,71.83C262.405,75.313 264.365,78.342 267.241,79.874L266.528,82.471Z" style="fill:white;stroke:rgb(7,131,104);stroke-width:0.19px;"/>
            </g>
        </g>
    </g>
</svg>
