<?xml version="1.0" encoding="UTF-8" standalone="no"?>
<!DOCTYPE svg PUBLIC "-//W3C//DTD SVG 1.1//EN" "http://www.w3.org/Graphics/SVG/1.1/DTD/svg11.dtd">
<svg width="100%" height="100%" viewBox="0 0 112 23" version="1.1" xmlns="http://www.w3.org/2000/svg" xmlns:xlink="http://www.w3.org/1999/xlink" xml:space="preserve" xmlns:serif="http://www.serif.com/" style="fill-rule:evenodd;clip-rule:evenodd;stroke-linejoin:round;stroke-miterlimit:2;">
    <g transform="matrix(1,0,0,1,-435.54,-345.643)">
        <g transform="matrix(1.05515,0,0,1.05515,46.934,-96.9352)">
            <g>
                <g transform="matrix(24,0,0,24,367.921,435.595)">
                    <path d="M0.56,-0.578L0.582,-0.405L0.521,-0.4L0.482,-0.513C0.476,-0.514 0.469,-0.515 0.462,-0.515C0.455,-0.515 0.447,-0.516 0.438,-0.516L0.385,-0.516C0.378,-0.516 0.372,-0.515 0.368,-0.514L0.367,-0.405C0.366,-0.377 0.366,-0.349 0.366,-0.32L0.366,-0.229C0.366,-0.193 0.367,-0.16 0.367,-0.131C0.368,-0.102 0.368,-0.079 0.369,-0.064L0.454,-0.051L0.451,0L0.147,0L0.145,-0.051L0.229,-0.064C0.23,-0.079 0.231,-0.102 0.231,-0.131C0.232,-0.16 0.232,-0.193 0.232,-0.229L0.232,-0.32C0.232,-0.349 0.232,-0.377 0.232,-0.405C0.232,-0.433 0.231,-0.457 0.231,-0.478C0.231,-0.498 0.231,-0.51 0.23,-0.514C0.227,-0.515 0.221,-0.516 0.213,-0.516L0.159,-0.516C0.151,-0.516 0.143,-0.515 0.135,-0.515C0.127,-0.515 0.12,-0.514 0.113,-0.513L0.076,-0.398L0.016,-0.404L0.036,-0.578C0.043,-0.578 0.052,-0.578 0.064,-0.577C0.076,-0.576 0.089,-0.576 0.102,-0.575C0.115,-0.575 0.128,-0.574 0.141,-0.574C0.154,-0.573 0.165,-0.573 0.174,-0.573L0.422,-0.573C0.431,-0.573 0.442,-0.573 0.454,-0.574C0.466,-0.574 0.479,-0.575 0.493,-0.575C0.507,-0.576 0.52,-0.576 0.531,-0.577C0.543,-0.578 0.552,-0.578 0.56,-0.578Z" style="fill:rgb(7,131,104);fill-rule:nonzero;"/>
                </g>
                <g transform="matrix(24,0,0,24,380.92,435.595)">
                    <path d="M0.015,0L0.012,-0.046L0.077,-0.062C0.078,-0.064 0.078,-0.07 0.079,-0.08C0.08,-0.089 0.08,-0.101 0.081,-0.115C0.082,-0.129 0.082,-0.144 0.082,-0.159L0.083,-0.232C0.083,-0.252 0.082,-0.269 0.081,-0.285C0.08,-0.3 0.077,-0.316 0.074,-0.333L0.009,-0.347L0.009,-0.391L0.188,-0.435L0.215,-0.418C0.213,-0.397 0.211,-0.376 0.21,-0.355C0.209,-0.334 0.209,-0.31 0.209,-0.283L0.209,-0.16C0.209,-0.139 0.209,-0.118 0.21,-0.099C0.211,-0.079 0.213,-0.067 0.215,-0.062L0.279,-0.046L0.276,0L0.015,0ZM0.147,-0.515C0.121,-0.515 0.1,-0.523 0.085,-0.539C0.071,-0.555 0.063,-0.573 0.063,-0.594C0.063,-0.615 0.071,-0.633 0.085,-0.649C0.1,-0.665 0.121,-0.673 0.147,-0.673C0.174,-0.673 0.194,-0.665 0.208,-0.649C0.222,-0.633 0.229,-0.615 0.229,-0.594C0.229,-0.573 0.222,-0.555 0.208,-0.539C0.194,-0.523 0.174,-0.515 0.147,-0.515Z" style="fill:rgb(7,131,104);fill-rule:nonzero;"/>
                </g>
                <g transform="matrix(24,0,0,24,386.945,435.595)">
                    <path d="M0.02,0L0.017,-0.045L0.077,-0.062C0.078,-0.064 0.078,-0.07 0.079,-0.08C0.08,-0.089 0.08,-0.101 0.081,-0.115C0.082,-0.129 0.082,-0.144 0.082,-0.159L0.083,-0.232C0.083,-0.245 0.083,-0.257 0.082,-0.268C0.081,-0.279 0.08,-0.29 0.079,-0.3C0.078,-0.311 0.076,-0.322 0.074,-0.333L0.012,-0.347L0.012,-0.391L0.184,-0.435L0.211,-0.418L0.205,-0.361L0.208,-0.36C0.229,-0.387 0.25,-0.406 0.273,-0.418C0.295,-0.431 0.319,-0.437 0.344,-0.437C0.369,-0.437 0.393,-0.43 0.415,-0.417C0.437,-0.405 0.455,-0.386 0.468,-0.36C0.482,-0.334 0.488,-0.301 0.488,-0.261L0.49,-0.16C0.49,-0.139 0.491,-0.118 0.491,-0.099C0.492,-0.079 0.493,-0.067 0.495,-0.062L0.549,-0.045L0.546,0L0.313,0L0.311,-0.045L0.36,-0.062C0.362,-0.068 0.363,-0.076 0.363,-0.087C0.364,-0.097 0.364,-0.109 0.365,-0.122C0.365,-0.135 0.365,-0.147 0.365,-0.159L0.364,-0.251C0.364,-0.274 0.361,-0.293 0.354,-0.307C0.347,-0.32 0.338,-0.33 0.327,-0.336C0.315,-0.343 0.302,-0.346 0.288,-0.346C0.273,-0.346 0.258,-0.342 0.244,-0.334C0.23,-0.327 0.218,-0.317 0.208,-0.304L0.208,-0.16C0.208,-0.139 0.208,-0.118 0.209,-0.099C0.21,-0.079 0.212,-0.067 0.214,-0.062L0.268,-0.045L0.265,0L0.02,0ZM0.593,0L0.59,-0.045L0.641,-0.062C0.642,-0.068 0.643,-0.077 0.644,-0.087C0.644,-0.098 0.645,-0.11 0.645,-0.123C0.645,-0.136 0.646,-0.148 0.646,-0.159L0.644,-0.242C0.644,-0.267 0.64,-0.287 0.633,-0.302C0.626,-0.318 0.616,-0.329 0.604,-0.335C0.591,-0.342 0.577,-0.346 0.563,-0.346C0.547,-0.346 0.532,-0.342 0.517,-0.335C0.502,-0.329 0.49,-0.318 0.479,-0.305L0.451,-0.342C0.475,-0.373 0.5,-0.397 0.526,-0.413C0.552,-0.429 0.581,-0.437 0.611,-0.437C0.643,-0.437 0.67,-0.43 0.694,-0.416C0.718,-0.402 0.736,-0.382 0.749,-0.356C0.762,-0.33 0.769,-0.298 0.769,-0.262L0.771,-0.16C0.771,-0.139 0.771,-0.118 0.771,-0.099C0.772,-0.079 0.773,-0.067 0.775,-0.062L0.836,-0.045L0.833,0L0.593,0Z" style="fill:rgb(7,131,104);fill-rule:nonzero;"/>
                </g>
                <g transform="matrix(24,0,0,24,405.825,435.595)">
                    <path d="M0.252,0.008C0.21,0.008 0.172,-0.002 0.139,-0.021C0.106,-0.039 0.081,-0.065 0.062,-0.098C0.043,-0.13 0.034,-0.167 0.034,-0.208C0.034,-0.254 0.045,-0.293 0.065,-0.328C0.086,-0.362 0.113,-0.389 0.147,-0.408C0.181,-0.428 0.216,-0.437 0.255,-0.437C0.313,-0.437 0.357,-0.419 0.389,-0.383C0.42,-0.348 0.436,-0.302 0.436,-0.245L0.436,-0.222L0.148,-0.222L0.148,-0.272L0.339,-0.272L0.324,-0.249L0.324,-0.283C0.324,-0.313 0.317,-0.337 0.304,-0.355C0.29,-0.374 0.271,-0.383 0.247,-0.383C0.231,-0.383 0.217,-0.378 0.204,-0.369C0.19,-0.36 0.18,-0.346 0.172,-0.328C0.165,-0.309 0.161,-0.286 0.161,-0.258L0.161,-0.237C0.161,-0.192 0.174,-0.156 0.198,-0.128C0.223,-0.1 0.256,-0.086 0.297,-0.086C0.319,-0.086 0.339,-0.09 0.357,-0.098C0.376,-0.106 0.393,-0.12 0.41,-0.14L0.44,-0.111C0.422,-0.072 0.396,-0.043 0.363,-0.022C0.33,-0.002 0.293,0.008 0.252,0.008Z" style="fill:rgb(7,131,104);fill-rule:nonzero;"/>
                </g>
                <g transform="matrix(24,0,0,24,415.925,435.595)">
                    <path d="M0.19,0.008C0.163,0.008 0.136,0.005 0.109,-0.001C0.083,-0.008 0.06,-0.016 0.041,-0.025L0.036,-0.141L0.1,-0.141L0.12,-0.07C0.145,-0.055 0.171,-0.048 0.197,-0.048C0.217,-0.048 0.233,-0.052 0.243,-0.06C0.254,-0.068 0.259,-0.079 0.259,-0.093C0.259,-0.107 0.253,-0.119 0.242,-0.129C0.23,-0.139 0.207,-0.151 0.172,-0.165C0.124,-0.183 0.09,-0.202 0.071,-0.223C0.052,-0.243 0.043,-0.27 0.043,-0.301C0.043,-0.327 0.051,-0.351 0.067,-0.372C0.084,-0.392 0.106,-0.408 0.136,-0.419C0.165,-0.431 0.199,-0.437 0.237,-0.437C0.258,-0.437 0.279,-0.435 0.301,-0.431C0.322,-0.427 0.34,-0.422 0.354,-0.415L0.365,-0.302L0.303,-0.302L0.281,-0.371C0.275,-0.375 0.267,-0.378 0.257,-0.38C0.248,-0.383 0.239,-0.384 0.23,-0.384C0.211,-0.384 0.195,-0.38 0.184,-0.371C0.172,-0.363 0.166,-0.351 0.166,-0.337C0.166,-0.322 0.173,-0.309 0.188,-0.298C0.202,-0.288 0.228,-0.274 0.266,-0.259C0.309,-0.241 0.339,-0.222 0.357,-0.203C0.376,-0.183 0.385,-0.158 0.385,-0.129C0.385,-0.088 0.367,-0.055 0.331,-0.03C0.294,-0.005 0.248,0.008 0.19,0.008Z" style="fill:rgb(7,131,104);fill-rule:nonzero;"/>
                </g>
                <g transform="matrix(24,0,0,24,424.57,435.595)">
                    <path d="M0.364,-0.082C0.354,-0.054 0.337,-0.032 0.311,-0.015C0.285,0.001 0.257,0.01 0.225,0.01C0.18,0.01 0.143,-0.003 0.114,-0.03C0.085,-0.056 0.07,-0.096 0.07,-0.148L0.073,-0.366L0.005,-0.366L0.005,-0.396L0.172,-0.529L0.202,-0.529L0.2,-0.392L0.198,-0.16C0.198,-0.133 0.205,-0.113 0.218,-0.102C0.232,-0.09 0.25,-0.084 0.273,-0.084C0.285,-0.084 0.297,-0.086 0.309,-0.091C0.32,-0.095 0.331,-0.102 0.34,-0.11L0.364,-0.082ZM0.151,-0.366L0.151,-0.428L0.338,-0.428L0.338,-0.366L0.151,-0.366Z" style="fill:rgb(7,131,104);fill-rule:nonzero;"/>
                </g>
                <g transform="matrix(24,0,0,24,432.258,435.595)">
                    <path d="M0.184,0.008C0.154,0.008 0.128,0.001 0.106,-0.012C0.084,-0.025 0.068,-0.04 0.056,-0.059C0.045,-0.077 0.039,-0.094 0.039,-0.11C0.039,-0.134 0.046,-0.154 0.061,-0.17C0.076,-0.186 0.098,-0.198 0.129,-0.207L0.282,-0.252L0.282,-0.287C0.282,-0.301 0.278,-0.314 0.269,-0.326C0.26,-0.338 0.249,-0.348 0.234,-0.355C0.22,-0.363 0.205,-0.367 0.188,-0.367C0.178,-0.367 0.171,-0.365 0.167,-0.36C0.162,-0.355 0.16,-0.345 0.158,-0.331L0.153,-0.271C0.121,-0.265 0.094,-0.266 0.074,-0.275C0.053,-0.284 0.043,-0.298 0.043,-0.318C0.043,-0.331 0.049,-0.343 0.063,-0.356C0.076,-0.369 0.092,-0.382 0.111,-0.393C0.13,-0.404 0.15,-0.414 0.17,-0.422C0.19,-0.431 0.208,-0.435 0.224,-0.437C0.281,-0.437 0.327,-0.423 0.361,-0.397C0.395,-0.371 0.412,-0.335 0.412,-0.291L0.409,-0.155C0.409,-0.137 0.41,-0.123 0.411,-0.113C0.412,-0.103 0.414,-0.094 0.417,-0.088L0.48,-0.076L0.48,-0.035L0.417,-0.007C0.406,-0.002 0.395,0.001 0.385,0.004C0.375,0.007 0.366,0.008 0.356,0.008C0.331,0.008 0.313,-0.005 0.303,-0.031L0.286,-0.076L0.307,-0.071C0.286,-0.047 0.266,-0.027 0.245,-0.013C0.223,0.001 0.203,0.008 0.184,0.008ZM0.233,-0.08C0.243,-0.08 0.251,-0.082 0.26,-0.085C0.268,-0.089 0.276,-0.094 0.283,-0.102L0.283,-0.197L0.217,-0.186C0.201,-0.183 0.19,-0.178 0.183,-0.17C0.175,-0.162 0.172,-0.152 0.172,-0.14C0.172,-0.124 0.178,-0.11 0.19,-0.098C0.202,-0.086 0.216,-0.08 0.233,-0.08Z" style="fill:rgb(7,131,104);fill-rule:nonzero;"/>
                </g>
                <g transform="matrix(24,0,0,24,442.825,435.595)">
                    <path d="M0.02,0L0.017,-0.045L0.077,-0.062C0.078,-0.064 0.078,-0.07 0.079,-0.08C0.08,-0.089 0.08,-0.101 0.081,-0.115C0.082,-0.129 0.082,-0.144 0.082,-0.159L0.083,-0.232C0.083,-0.245 0.083,-0.257 0.082,-0.268C0.081,-0.279 0.08,-0.29 0.079,-0.3C0.078,-0.311 0.076,-0.322 0.074,-0.333L0.012,-0.347L0.012,-0.391L0.184,-0.435L0.211,-0.418L0.205,-0.361L0.208,-0.36C0.229,-0.387 0.25,-0.406 0.273,-0.418C0.295,-0.431 0.319,-0.437 0.344,-0.437C0.369,-0.437 0.393,-0.43 0.415,-0.417C0.437,-0.405 0.455,-0.386 0.468,-0.36C0.482,-0.334 0.488,-0.301 0.488,-0.261L0.49,-0.16C0.49,-0.139 0.491,-0.118 0.491,-0.099C0.492,-0.079 0.493,-0.067 0.495,-0.062L0.549,-0.045L0.546,0L0.313,0L0.311,-0.045L0.36,-0.062C0.362,-0.068 0.363,-0.076 0.363,-0.087C0.364,-0.097 0.364,-0.109 0.365,-0.122C0.365,-0.135 0.365,-0.147 0.365,-0.159L0.364,-0.251C0.364,-0.274 0.361,-0.293 0.354,-0.307C0.347,-0.32 0.338,-0.33 0.327,-0.336C0.315,-0.343 0.302,-0.346 0.288,-0.346C0.273,-0.346 0.258,-0.342 0.244,-0.334C0.23,-0.327 0.218,-0.317 0.208,-0.304L0.208,-0.16C0.208,-0.139 0.208,-0.118 0.209,-0.099C0.21,-0.079 0.212,-0.067 0.214,-0.062L0.268,-0.045L0.265,0L0.02,0ZM0.593,0L0.59,-0.045L0.641,-0.062C0.642,-0.068 0.643,-0.077 0.644,-0.087C0.644,-0.098 0.645,-0.11 0.645,-0.123C0.645,-0.136 0.646,-0.148 0.646,-0.159L0.644,-0.242C0.644,-0.267 0.64,-0.287 0.633,-0.302C0.626,-0.318 0.616,-0.329 0.604,-0.335C0.591,-0.342 0.577,-0.346 0.563,-0.346C0.547,-0.346 0.532,-0.342 0.517,-0.335C0.502,-0.329 0.49,-0.318 0.479,-0.305L0.451,-0.342C0.475,-0.373 0.5,-0.397 0.526,-0.413C0.552,-0.429 0.581,-0.437 0.611,-0.437C0.643,-0.437 0.67,-0.43 0.694,-0.416C0.718,-0.402 0.736,-0.382 0.749,-0.356C0.762,-0.33 0.769,-0.298 0.769,-0.262L0.771,-0.16C0.771,-0.139 0.771,-0.118 0.771,-0.099C0.772,-0.079 0.773,-0.067 0.775,-0.062L0.836,-0.045L0.833,0L0.593,0Z" style="fill:rgb(7,131,104);fill-rule:nonzero;"/>
                </g>
                <g transform="matrix(24,0,0,24,461.777,435.595)">
                    <path d="M0.016,0.215L0.013,0.17L0.073,0.153C0.073,0.149 0.074,0.141 0.074,0.129C0.075,0.117 0.076,0.102 0.076,0.084C0.077,0.066 0.077,0.047 0.078,0.025C0.079,0.004 0.079,-0.018 0.079,-0.039L0.081,-0.233C0.081,-0.252 0.08,-0.269 0.079,-0.285C0.078,-0.3 0.076,-0.316 0.072,-0.333L0.01,-0.347L0.01,-0.391L0.182,-0.435L0.209,-0.418L0.201,-0.358L0.204,-0.357C0.22,-0.382 0.239,-0.401 0.263,-0.415C0.286,-0.429 0.311,-0.437 0.337,-0.437C0.368,-0.437 0.397,-0.429 0.424,-0.413C0.451,-0.397 0.473,-0.374 0.49,-0.343C0.507,-0.313 0.516,-0.276 0.516,-0.232C0.516,-0.19 0.506,-0.151 0.486,-0.114C0.467,-0.078 0.439,-0.049 0.403,-0.026C0.367,-0.004 0.324,0.007 0.275,0.007C0.264,0.007 0.253,0.006 0.241,0.004C0.229,0.002 0.217,-0.001 0.206,-0.005L0.206,0.057C0.206,0.078 0.207,0.098 0.208,0.117C0.208,0.136 0.209,0.148 0.21,0.153L0.29,0.169L0.287,0.215L0.016,0.215ZM0.276,-0.063C0.297,-0.063 0.314,-0.067 0.33,-0.077C0.345,-0.086 0.357,-0.101 0.366,-0.122C0.375,-0.143 0.38,-0.17 0.379,-0.202C0.38,-0.236 0.375,-0.263 0.365,-0.284C0.355,-0.304 0.343,-0.319 0.328,-0.329C0.313,-0.339 0.297,-0.344 0.279,-0.344C0.266,-0.344 0.252,-0.34 0.24,-0.333C0.227,-0.327 0.216,-0.317 0.206,-0.306L0.206,-0.083C0.216,-0.077 0.227,-0.072 0.239,-0.068C0.252,-0.064 0.264,-0.063 0.276,-0.063Z" style="fill:rgb(7,131,104);fill-rule:nonzero;"/>
                </g>
            </g>
        </g>
    </g>
</svg>
