<?xml version="1.0" encoding="UTF-8" standalone="no"?>
<!DOCTYPE svg PUBLIC "-//W3C//DTD SVG 1.1//EN" "http://www.w3.org/Graphics/SVG/1.1/DTD/svg11.dtd">
<svg width="100%" height="100%" viewBox="0 0 125 27" version="1.1" xmlns="http://www.w3.org/2000/svg" xmlns:xlink="http://www.w3.org/1999/xlink" xml:space="preserve" xmlns:serif="http://www.serif.com/" style="fill-rule:evenodd;clip-rule:evenodd;stroke-linejoin:round;stroke-miterlimit:2;">
    <g transform="matrix(1,0,0,1,-241.631,-188.013)">
        <g transform="matrix(1,0,0,1,13.9011,0)">
            <g transform="matrix(0.707529,0,0,0.707529,-2.00418,-100.671)">
                <g transform="matrix(24,0,0,24,367.921,435.595)">
                    <path d="M0.036,-0.6L0.036,-0.727L0.633,-0.727L0.633,-0.6L0.41,-0.6L0.41,0L0.258,0L0.258,-0.6L0.036,-0.6Z" style="fill:rgb(7,131,104);fill-rule:nonzero;"/>
                </g>
                <g transform="matrix(24,0,0,24,383.913,435.595)">
                    <path d="M0.06,0L0.06,-0.545L0.212,-0.545L0.212,0L0.06,0ZM0.137,-0.616C0.114,-0.616 0.095,-0.623 0.079,-0.638C0.063,-0.653 0.055,-0.671 0.055,-0.692C0.055,-0.713 0.063,-0.731 0.079,-0.746C0.095,-0.761 0.114,-0.769 0.136,-0.769C0.159,-0.769 0.178,-0.761 0.194,-0.746C0.21,-0.731 0.218,-0.713 0.218,-0.692C0.218,-0.671 0.21,-0.653 0.194,-0.638C0.178,-0.623 0.159,-0.616 0.137,-0.616Z" style="fill:rgb(7,131,104);fill-rule:nonzero;"/>
                </g>
                <g transform="matrix(24,0,0,24,390.801,435.595)">
                    <path d="M0.06,0L0.06,-0.545L0.205,-0.545L0.205,-0.449L0.211,-0.449C0.222,-0.481 0.241,-0.506 0.268,-0.525C0.294,-0.543 0.326,-0.553 0.363,-0.553C0.4,-0.553 0.432,-0.543 0.458,-0.525C0.485,-0.506 0.502,-0.481 0.511,-0.449L0.517,-0.449C0.528,-0.48 0.548,-0.506 0.577,-0.524C0.606,-0.543 0.641,-0.553 0.681,-0.553C0.732,-0.553 0.773,-0.536 0.805,-0.504C0.837,-0.472 0.853,-0.426 0.853,-0.367L0.853,0L0.702,0L0.702,-0.337C0.702,-0.367 0.694,-0.39 0.678,-0.405C0.662,-0.42 0.642,-0.428 0.618,-0.428C0.59,-0.428 0.569,-0.419 0.553,-0.402C0.538,-0.384 0.53,-0.362 0.53,-0.333L0.53,0L0.384,0L0.384,-0.34C0.384,-0.367 0.376,-0.388 0.361,-0.404C0.345,-0.42 0.325,-0.428 0.3,-0.428C0.284,-0.428 0.269,-0.424 0.255,-0.415C0.242,-0.407 0.231,-0.395 0.223,-0.38C0.216,-0.365 0.212,-0.348 0.212,-0.327L0.212,0L0.06,0Z" style="fill:rgb(7,131,104);fill-rule:nonzero;"/>
                </g>
                <g transform="matrix(24,0,0,24,412.4,435.595)">
                    <path d="M0.309,0.011C0.253,0.011 0.205,-0.001 0.164,-0.024C0.124,-0.046 0.093,-0.079 0.071,-0.121C0.049,-0.163 0.038,-0.213 0.038,-0.27C0.038,-0.326 0.049,-0.376 0.071,-0.418C0.093,-0.46 0.124,-0.493 0.163,-0.517C0.203,-0.541 0.249,-0.553 0.303,-0.553C0.339,-0.553 0.372,-0.547 0.404,-0.535C0.435,-0.524 0.462,-0.507 0.485,-0.484C0.509,-0.461 0.527,-0.432 0.54,-0.397C0.553,-0.363 0.559,-0.322 0.559,-0.276L0.559,-0.234L0.099,-0.234L0.099,-0.328L0.417,-0.328C0.417,-0.35 0.412,-0.369 0.403,-0.386C0.393,-0.402 0.38,-0.416 0.363,-0.425C0.347,-0.435 0.327,-0.44 0.305,-0.44C0.282,-0.44 0.262,-0.434 0.244,-0.424C0.227,-0.413 0.213,-0.399 0.203,-0.382C0.193,-0.364 0.188,-0.344 0.188,-0.323L0.188,-0.234C0.188,-0.207 0.193,-0.183 0.203,-0.164C0.213,-0.144 0.227,-0.129 0.246,-0.118C0.264,-0.108 0.286,-0.102 0.311,-0.102C0.328,-0.102 0.344,-0.105 0.358,-0.109C0.372,-0.114 0.384,-0.121 0.393,-0.131C0.403,-0.14 0.411,-0.152 0.416,-0.165L0.556,-0.156C0.549,-0.123 0.535,-0.093 0.513,-0.068C0.491,-0.043 0.463,-0.024 0.428,-0.01C0.394,0.004 0.354,0.011 0.309,0.011Z" style="fill:rgb(7,131,104);fill-rule:nonzero;"/>
                </g>
                <g transform="matrix(24,0,0,24,426.839,435.595)">
                    <path d="M0.514,-0.39L0.376,-0.381C0.373,-0.393 0.368,-0.404 0.36,-0.414C0.353,-0.423 0.342,-0.431 0.33,-0.437C0.317,-0.442 0.302,-0.445 0.284,-0.445C0.261,-0.445 0.241,-0.44 0.225,-0.431C0.209,-0.421 0.201,-0.408 0.201,-0.391C0.201,-0.378 0.206,-0.367 0.217,-0.358C0.227,-0.349 0.245,-0.342 0.27,-0.337L0.369,-0.317C0.422,-0.306 0.462,-0.288 0.488,-0.264C0.514,-0.24 0.527,-0.208 0.527,-0.169C0.527,-0.133 0.516,-0.102 0.495,-0.075C0.474,-0.048 0.446,-0.027 0.409,-0.012C0.373,0.003 0.331,0.011 0.284,0.011C0.212,0.011 0.154,-0.004 0.111,-0.035C0.069,-0.065 0.044,-0.106 0.036,-0.158L0.185,-0.166C0.19,-0.144 0.2,-0.127 0.218,-0.116C0.235,-0.104 0.257,-0.098 0.284,-0.098C0.311,-0.098 0.332,-0.104 0.348,-0.114C0.364,-0.124 0.373,-0.137 0.373,-0.154C0.373,-0.167 0.367,-0.179 0.355,-0.188C0.344,-0.197 0.327,-0.203 0.303,-0.208L0.208,-0.227C0.155,-0.238 0.116,-0.256 0.09,-0.282C0.064,-0.309 0.051,-0.342 0.051,-0.383C0.051,-0.418 0.06,-0.448 0.079,-0.473C0.098,-0.499 0.125,-0.518 0.16,-0.532C0.195,-0.546 0.235,-0.553 0.282,-0.553C0.351,-0.553 0.405,-0.538 0.445,-0.509C0.484,-0.48 0.508,-0.44 0.514,-0.39Z" style="fill:rgb(7,131,104);fill-rule:nonzero;"/>
                </g>
                <g transform="matrix(24,0,0,24,440.37,435.595)">
                    <path d="M0.35,-0.545L0.35,-0.432L0.022,-0.432L0.022,-0.545L0.35,-0.545ZM0.097,-0.676L0.248,-0.676L0.248,-0.168C0.248,-0.154 0.25,-0.143 0.254,-0.135C0.259,-0.127 0.265,-0.122 0.272,-0.119C0.28,-0.116 0.289,-0.114 0.299,-0.114C0.306,-0.114 0.313,-0.115 0.32,-0.116C0.327,-0.118 0.333,-0.119 0.337,-0.119L0.36,-0.007C0.353,-0.004 0.342,-0.002 0.328,0.002C0.315,0.005 0.298,0.007 0.278,0.007C0.242,0.009 0.21,0.004 0.183,-0.007C0.155,-0.018 0.134,-0.036 0.119,-0.059C0.104,-0.082 0.096,-0.112 0.097,-0.148L0.097,-0.676Z" style="fill:rgb(7,131,104);fill-rule:nonzero;"/>
                </g>
                <g transform="matrix(24,0,0,24,450.054,435.595)">
                    <path d="M0.216,0.01C0.181,0.01 0.15,0.004 0.123,-0.008C0.096,-0.02 0.074,-0.038 0.058,-0.062C0.043,-0.086 0.035,-0.116 0.035,-0.152C0.035,-0.183 0.04,-0.208 0.051,-0.229C0.063,-0.249 0.078,-0.266 0.097,-0.278C0.116,-0.291 0.138,-0.3 0.162,-0.307C0.187,-0.313 0.213,-0.318 0.24,-0.32C0.271,-0.324 0.297,-0.327 0.316,-0.33C0.336,-0.333 0.35,-0.337 0.359,-0.343C0.367,-0.349 0.372,-0.358 0.372,-0.369L0.372,-0.371C0.372,-0.394 0.365,-0.411 0.351,-0.424C0.337,-0.436 0.317,-0.442 0.291,-0.442C0.264,-0.442 0.242,-0.436 0.226,-0.424C0.21,-0.412 0.199,-0.397 0.194,-0.379L0.054,-0.391C0.061,-0.424 0.075,-0.452 0.096,-0.477C0.117,-0.501 0.144,-0.52 0.177,-0.533C0.21,-0.546 0.248,-0.553 0.292,-0.553C0.322,-0.553 0.351,-0.549 0.379,-0.542C0.407,-0.535 0.431,-0.524 0.453,-0.509C0.475,-0.494 0.492,-0.475 0.504,-0.452C0.517,-0.428 0.523,-0.4 0.523,-0.368L0.523,0L0.38,0L0.38,-0.076L0.375,-0.076C0.367,-0.059 0.355,-0.044 0.34,-0.031C0.326,-0.018 0.308,-0.008 0.287,-0.001C0.267,0.007 0.243,0.01 0.216,0.01ZM0.259,-0.094C0.281,-0.094 0.301,-0.099 0.318,-0.107C0.335,-0.116 0.349,-0.128 0.358,-0.143C0.368,-0.159 0.373,-0.176 0.373,-0.195L0.373,-0.253C0.368,-0.25 0.362,-0.247 0.354,-0.244C0.345,-0.242 0.336,-0.24 0.326,-0.238C0.316,-0.236 0.306,-0.234 0.295,-0.232C0.285,-0.231 0.276,-0.23 0.268,-0.228C0.25,-0.226 0.234,-0.222 0.221,-0.216C0.208,-0.21 0.198,-0.203 0.19,-0.193C0.183,-0.183 0.179,-0.172 0.179,-0.157C0.179,-0.137 0.187,-0.121 0.202,-0.11C0.217,-0.099 0.236,-0.094 0.259,-0.094Z" style="fill:rgb(7,131,104);fill-rule:nonzero;"/>
                </g>
                <g transform="matrix(24,0,0,24,464.148,435.595)">
                    <path d="M0.06,0L0.06,-0.545L0.205,-0.545L0.205,-0.449L0.211,-0.449C0.222,-0.481 0.241,-0.506 0.268,-0.525C0.294,-0.543 0.326,-0.553 0.363,-0.553C0.4,-0.553 0.432,-0.543 0.458,-0.525C0.485,-0.506 0.502,-0.481 0.511,-0.449L0.517,-0.449C0.528,-0.48 0.548,-0.506 0.577,-0.524C0.606,-0.543 0.641,-0.553 0.681,-0.553C0.732,-0.553 0.773,-0.536 0.805,-0.504C0.837,-0.472 0.853,-0.426 0.853,-0.367L0.853,0L0.702,0L0.702,-0.337C0.702,-0.367 0.694,-0.39 0.678,-0.405C0.662,-0.42 0.642,-0.428 0.618,-0.428C0.59,-0.428 0.569,-0.419 0.553,-0.402C0.538,-0.384 0.53,-0.362 0.53,-0.333L0.53,0L0.384,0L0.384,-0.34C0.384,-0.367 0.376,-0.388 0.361,-0.404C0.345,-0.42 0.325,-0.428 0.3,-0.428C0.284,-0.428 0.269,-0.424 0.255,-0.415C0.242,-0.407 0.231,-0.395 0.223,-0.38C0.216,-0.365 0.212,-0.348 0.212,-0.327L0.212,0L0.06,0Z" style="fill:rgb(7,131,104);fill-rule:nonzero;"/>
                </g>
                <g transform="matrix(24,0,0,24,485.987,435.595)">
                    <path d="M0.06,0.205L0.06,-0.545L0.21,-0.545L0.21,-0.454L0.216,-0.454C0.223,-0.469 0.233,-0.483 0.245,-0.499C0.258,-0.514 0.274,-0.527 0.295,-0.537C0.315,-0.547 0.341,-0.553 0.371,-0.553C0.411,-0.553 0.448,-0.542 0.482,-0.521C0.515,-0.501 0.542,-0.47 0.562,-0.428C0.582,-0.387 0.592,-0.335 0.592,-0.272C0.592,-0.211 0.583,-0.16 0.563,-0.118C0.544,-0.076 0.517,-0.045 0.483,-0.023C0.45,-0.002 0.413,0.009 0.371,0.009C0.342,0.009 0.317,0.004 0.296,-0.006C0.276,-0.015 0.259,-0.028 0.246,-0.042C0.233,-0.057 0.223,-0.072 0.216,-0.087L0.212,-0.087L0.212,0.205L0.06,0.205ZM0.208,-0.273C0.208,-0.24 0.213,-0.212 0.222,-0.188C0.231,-0.164 0.244,-0.145 0.261,-0.132C0.278,-0.118 0.299,-0.112 0.323,-0.112C0.348,-0.112 0.369,-0.118 0.386,-0.132C0.403,-0.146 0.416,-0.164 0.425,-0.189C0.433,-0.213 0.438,-0.241 0.438,-0.273C0.438,-0.304 0.433,-0.332 0.425,-0.356C0.416,-0.38 0.403,-0.398 0.386,-0.412C0.369,-0.425 0.348,-0.432 0.323,-0.432C0.299,-0.432 0.278,-0.426 0.261,-0.413C0.244,-0.4 0.231,-0.381 0.222,-0.357C0.213,-0.333 0.208,-0.305 0.208,-0.273Z" style="fill:rgb(7,131,104);fill-rule:nonzero;"/>
                </g>
            </g>
            <g transform="matrix(0.897714,0,0,0.897714,34.2602,-85.5484)">
                <path d="M245.238,321.172C244.424,328.631 238.096,334.445 230.42,334.445C222.193,334.445 215.514,327.766 215.514,319.539C215.514,311.896 221.278,305.589 228.694,304.731L228.694,307.796C222.96,308.633 218.552,313.575 218.552,319.539C218.552,326.089 223.87,331.407 230.42,331.407C236.417,331.407 241.38,326.95 242.177,321.172L245.238,321.172ZM228.694,316.339L222.97,316.339L222.97,313.14L237.87,313.14L237.87,316.339L232.147,316.339L232.147,329.064L228.694,329.064L228.694,316.339ZM242.186,317.973C241.494,312.728 237.37,308.558 232.147,307.795L232.147,304.731C239.043,305.528 244.512,311.039 245.244,317.954L245.245,317.973L242.186,317.973Z" style="fill:rgb(7,131,104);"/>
            </g>
        </g>
    </g>
</svg>
