<?xml version="1.0" encoding="UTF-8" standalone="no"?>
<!DOCTYPE svg PUBLIC "-//W3C//DTD SVG 1.1//EN" "http://www.w3.org/Graphics/SVG/1.1/DTD/svg11.dtd">
<svg width="100%" height="100%" viewBox="0 0 128 27" version="1.1" xmlns="http://www.w3.org/2000/svg" xmlns:xlink="http://www.w3.org/1999/xlink" xml:space="preserve" xmlns:serif="http://www.serif.com/" style="fill-rule:evenodd;clip-rule:evenodd;stroke-linejoin:round;stroke-miterlimit:2;">
    <g transform="matrix(1,0,0,1,-241.631,-188.013)">
        <g>
            <g transform="matrix(0.751485,0,0,0.751485,-4.75799,-119.546)">
                <g>
                    <g transform="matrix(24,0,0,24,367.921,435.595)">
                        <path d="M0.04,-0.617L0.04,-0.727L0.62,-0.727L0.62,-0.617L0.395,-0.617L0.395,0L0.265,0L0.265,-0.617L0.04,-0.617Z" style="fill:rgb(69,84,81);fill-rule:nonzero;"/>
                    </g>
                    <g transform="matrix(24,0,0,24,383.708,435.595)">
                        <path d="M0.066,0L0.066,-0.545L0.195,-0.545L0.195,0L0.066,0ZM0.131,-0.623C0.11,-0.623 0.093,-0.63 0.078,-0.643C0.063,-0.657 0.056,-0.673 0.056,-0.692C0.056,-0.712 0.063,-0.728 0.078,-0.742C0.093,-0.756 0.11,-0.762 0.131,-0.762C0.151,-0.762 0.169,-0.756 0.183,-0.742C0.198,-0.728 0.205,-0.712 0.205,-0.692C0.205,-0.673 0.198,-0.657 0.183,-0.643C0.169,-0.63 0.151,-0.623 0.131,-0.623Z" style="fill:rgb(69,84,81);fill-rule:nonzero;"/>
                    </g>
                    <g transform="matrix(24,0,0,24,390.324,435.595)">
                        <path d="M0.066,0L0.066,-0.545L0.189,-0.545L0.189,-0.453L0.195,-0.453C0.207,-0.484 0.225,-0.508 0.252,-0.526C0.278,-0.544 0.309,-0.553 0.346,-0.553C0.383,-0.553 0.414,-0.544 0.439,-0.526C0.465,-0.508 0.483,-0.484 0.493,-0.453L0.499,-0.453C0.511,-0.483 0.531,-0.507 0.56,-0.525C0.589,-0.544 0.623,-0.553 0.663,-0.553C0.713,-0.553 0.754,-0.537 0.786,-0.505C0.817,-0.473 0.833,-0.427 0.833,-0.366L0.833,0L0.704,0L0.704,-0.346C0.704,-0.38 0.695,-0.405 0.677,-0.421C0.659,-0.436 0.637,-0.444 0.611,-0.444C0.58,-0.444 0.556,-0.435 0.539,-0.415C0.521,-0.396 0.512,-0.371 0.512,-0.34L0.512,0L0.386,0L0.386,-0.352C0.386,-0.38 0.378,-0.402 0.361,-0.419C0.344,-0.436 0.322,-0.444 0.295,-0.444C0.276,-0.444 0.259,-0.44 0.244,-0.43C0.229,-0.421 0.217,-0.408 0.208,-0.391C0.199,-0.374 0.195,-0.354 0.195,-0.332L0.195,0L0.066,0Z" style="fill:rgb(69,84,81);fill-rule:nonzero;"/>
                    </g>
                    <g transform="matrix(24,0,0,24,411.581,435.595)">
                        <path d="M0.308,0.011C0.253,0.011 0.206,-0.001 0.166,-0.024C0.126,-0.046 0.096,-0.079 0.075,-0.121C0.053,-0.163 0.043,-0.212 0.043,-0.27C0.043,-0.326 0.053,-0.375 0.075,-0.417C0.096,-0.46 0.126,-0.493 0.165,-0.517C0.203,-0.541 0.249,-0.553 0.301,-0.553C0.334,-0.553 0.366,-0.547 0.396,-0.536C0.426,-0.526 0.453,-0.509 0.476,-0.487C0.499,-0.464 0.517,-0.435 0.53,-0.401C0.543,-0.366 0.55,-0.325 0.55,-0.277L0.55,-0.238L0.103,-0.238L0.103,-0.324L0.427,-0.324C0.427,-0.349 0.421,-0.371 0.411,-0.39C0.4,-0.409 0.386,-0.425 0.367,-0.436C0.349,-0.447 0.327,-0.452 0.303,-0.452C0.276,-0.452 0.253,-0.446 0.233,-0.433C0.213,-0.421 0.198,-0.404 0.187,-0.384C0.176,-0.363 0.17,-0.341 0.17,-0.316L0.17,-0.241C0.17,-0.209 0.176,-0.182 0.188,-0.159C0.199,-0.137 0.215,-0.119 0.236,-0.107C0.257,-0.095 0.281,-0.089 0.309,-0.089C0.328,-0.089 0.345,-0.092 0.36,-0.097C0.375,-0.103 0.388,-0.111 0.4,-0.121C0.411,-0.132 0.419,-0.144 0.425,-0.16L0.545,-0.146C0.537,-0.115 0.523,-0.087 0.502,-0.063C0.48,-0.04 0.453,-0.022 0.42,-0.009C0.388,0.004 0.35,0.011 0.308,0.011Z" style="fill:rgb(69,84,81);fill-rule:nonzero;"/>
                    </g>
                    <g transform="matrix(24,0,0,24,425.902,435.595)">
                        <path d="M0.497,-0.401L0.38,-0.388C0.377,-0.4 0.371,-0.411 0.363,-0.422C0.355,-0.432 0.344,-0.441 0.33,-0.447C0.316,-0.453 0.299,-0.457 0.279,-0.457C0.253,-0.457 0.23,-0.451 0.212,-0.439C0.194,-0.428 0.185,-0.413 0.185,-0.394C0.185,-0.378 0.191,-0.365 0.203,-0.355C0.215,-0.346 0.235,-0.337 0.262,-0.331L0.355,-0.311C0.407,-0.3 0.445,-0.282 0.471,-0.258C0.496,-0.234 0.509,-0.202 0.509,-0.163C0.509,-0.129 0.499,-0.099 0.479,-0.073C0.459,-0.046 0.432,-0.026 0.397,-0.011C0.362,0.003 0.321,0.011 0.276,0.011C0.209,0.011 0.155,-0.003 0.115,-0.031C0.074,-0.059 0.05,-0.099 0.042,-0.149L0.167,-0.161C0.173,-0.136 0.185,-0.118 0.203,-0.105C0.222,-0.093 0.246,-0.086 0.276,-0.086C0.306,-0.086 0.331,-0.093 0.349,-0.105C0.368,-0.118 0.377,-0.133 0.377,-0.152C0.377,-0.167 0.371,-0.18 0.359,-0.19C0.347,-0.201 0.329,-0.208 0.304,-0.214L0.211,-0.233C0.158,-0.244 0.12,-0.263 0.094,-0.289C0.069,-0.314 0.057,-0.347 0.057,-0.387C0.057,-0.421 0.066,-0.45 0.085,-0.475C0.103,-0.499 0.129,-0.519 0.162,-0.532C0.196,-0.546 0.234,-0.553 0.278,-0.553C0.342,-0.553 0.392,-0.539 0.429,-0.512C0.466,-0.484 0.488,-0.448 0.497,-0.401Z" style="fill:rgb(69,84,81);fill-rule:nonzero;"/>
                    </g>
                    <g transform="matrix(24,0,0,24,439.126,435.595)">
                        <path d="M0.338,-0.545L0.338,-0.446L0.025,-0.446L0.025,-0.545L0.338,-0.545ZM0.102,-0.676L0.231,-0.676L0.231,-0.164C0.231,-0.147 0.233,-0.134 0.239,-0.124C0.244,-0.115 0.251,-0.109 0.26,-0.106C0.269,-0.103 0.278,-0.101 0.289,-0.101C0.297,-0.101 0.305,-0.101 0.311,-0.103C0.318,-0.104 0.323,-0.105 0.327,-0.106L0.348,-0.005C0.342,-0.003 0.332,0 0.319,0.002C0.306,0.005 0.291,0.007 0.273,0.007C0.241,0.008 0.212,0.003 0.186,-0.007C0.16,-0.018 0.14,-0.035 0.124,-0.058C0.109,-0.08 0.102,-0.109 0.102,-0.143L0.102,-0.676Z" style="fill:rgb(69,84,81);fill-rule:nonzero;"/>
                    </g>
                    <g transform="matrix(24,0,0,24,448.605,435.595)">
                        <path d="M0.223,0.011C0.188,0.011 0.157,0.005 0.13,-0.008C0.102,-0.02 0.08,-0.038 0.064,-0.063C0.048,-0.087 0.04,-0.117 0.04,-0.153C0.04,-0.184 0.046,-0.209 0.058,-0.229C0.069,-0.25 0.084,-0.266 0.104,-0.278C0.124,-0.29 0.146,-0.299 0.171,-0.305C0.195,-0.311 0.221,-0.316 0.248,-0.319C0.279,-0.322 0.305,-0.325 0.325,-0.328C0.345,-0.331 0.36,-0.335 0.369,-0.341C0.378,-0.347 0.382,-0.356 0.382,-0.368L0.382,-0.37C0.382,-0.397 0.375,-0.417 0.359,-0.432C0.343,-0.447 0.32,-0.454 0.29,-0.454C0.259,-0.454 0.234,-0.447 0.215,-0.434C0.197,-0.42 0.185,-0.404 0.178,-0.385L0.058,-0.402C0.068,-0.435 0.083,-0.463 0.105,-0.485C0.127,-0.508 0.154,-0.524 0.185,-0.536C0.217,-0.547 0.251,-0.553 0.289,-0.553C0.316,-0.553 0.342,-0.549 0.368,-0.543C0.394,-0.537 0.418,-0.527 0.439,-0.513C0.461,-0.499 0.478,-0.48 0.491,-0.456C0.504,-0.431 0.511,-0.401 0.511,-0.365L0.511,0L0.387,0L0.387,-0.075L0.383,-0.075C0.375,-0.06 0.364,-0.046 0.35,-0.032C0.336,-0.019 0.319,-0.009 0.297,-0.001C0.276,0.007 0.251,0.011 0.223,0.011ZM0.256,-0.083C0.282,-0.083 0.305,-0.089 0.324,-0.099C0.342,-0.109 0.357,-0.123 0.367,-0.14C0.378,-0.157 0.383,-0.176 0.383,-0.196L0.383,-0.26C0.379,-0.257 0.372,-0.254 0.362,-0.251C0.353,-0.248 0.342,-0.245 0.33,-0.243C0.318,-0.241 0.307,-0.239 0.295,-0.238C0.283,-0.236 0.273,-0.234 0.265,-0.233C0.246,-0.231 0.229,-0.226 0.213,-0.221C0.198,-0.215 0.186,-0.206 0.178,-0.196C0.169,-0.185 0.164,-0.172 0.164,-0.155C0.164,-0.132 0.173,-0.114 0.19,-0.102C0.208,-0.089 0.23,-0.083 0.256,-0.083Z" style="fill:rgb(69,84,81);fill-rule:nonzero;"/>
                    </g>
                    <g transform="matrix(24,0,0,24,462.563,435.595)">
                        <path d="M0.066,0L0.066,-0.545L0.189,-0.545L0.189,-0.453L0.195,-0.453C0.207,-0.484 0.225,-0.508 0.252,-0.526C0.278,-0.544 0.309,-0.553 0.346,-0.553C0.383,-0.553 0.414,-0.544 0.439,-0.526C0.465,-0.508 0.483,-0.484 0.493,-0.453L0.499,-0.453C0.511,-0.483 0.531,-0.507 0.56,-0.525C0.589,-0.544 0.623,-0.553 0.663,-0.553C0.713,-0.553 0.754,-0.537 0.786,-0.505C0.817,-0.473 0.833,-0.427 0.833,-0.366L0.833,0L0.704,0L0.704,-0.346C0.704,-0.38 0.695,-0.405 0.677,-0.421C0.659,-0.436 0.637,-0.444 0.611,-0.444C0.58,-0.444 0.556,-0.435 0.539,-0.415C0.521,-0.396 0.512,-0.371 0.512,-0.34L0.512,0L0.386,0L0.386,-0.352C0.386,-0.38 0.378,-0.402 0.361,-0.419C0.344,-0.436 0.322,-0.444 0.295,-0.444C0.276,-0.444 0.259,-0.44 0.244,-0.43C0.229,-0.421 0.217,-0.408 0.208,-0.391C0.199,-0.374 0.195,-0.354 0.195,-0.332L0.195,0L0.066,0Z" style="fill:rgb(69,84,81);fill-rule:nonzero;"/>
                    </g>
                    <g transform="matrix(24,0,0,24,484.061,435.595)">
                        <path d="M0.066,0.205L0.066,-0.545L0.192,-0.545L0.192,-0.455L0.2,-0.455C0.207,-0.469 0.216,-0.483 0.228,-0.498C0.24,-0.513 0.256,-0.526 0.277,-0.536C0.298,-0.547 0.324,-0.553 0.356,-0.553C0.398,-0.553 0.436,-0.542 0.47,-0.52C0.504,-0.499 0.531,-0.467 0.551,-0.426C0.571,-0.384 0.581,-0.333 0.581,-0.272C0.581,-0.212 0.571,-0.161 0.551,-0.119C0.532,-0.077 0.505,-0.045 0.471,-0.023C0.437,-0.001 0.399,0.01 0.356,0.01C0.325,0.01 0.299,0.004 0.278,-0.006C0.258,-0.016 0.241,-0.029 0.229,-0.044C0.216,-0.059 0.207,-0.073 0.2,-0.086L0.195,-0.086L0.195,0.205L0.066,0.205ZM0.192,-0.273C0.192,-0.237 0.197,-0.207 0.207,-0.18C0.217,-0.154 0.232,-0.133 0.251,-0.118C0.27,-0.103 0.293,-0.096 0.32,-0.096C0.349,-0.096 0.373,-0.104 0.392,-0.119C0.411,-0.134 0.425,-0.155 0.435,-0.182C0.445,-0.208 0.45,-0.239 0.45,-0.273C0.45,-0.307 0.445,-0.337 0.435,-0.363C0.426,-0.389 0.411,-0.41 0.392,-0.425C0.373,-0.44 0.349,-0.447 0.32,-0.447C0.293,-0.447 0.27,-0.44 0.25,-0.425C0.231,-0.411 0.217,-0.391 0.207,-0.365C0.197,-0.339 0.192,-0.308 0.192,-0.273Z" style="fill:rgb(69,84,81);fill-rule:nonzero;"/>
                    </g>
                </g>
            </g>
            <path d="M268.301,202.9C267.512,209.535 261.859,214.688 255.013,214.688C247.627,214.688 241.631,208.691 241.631,201.306C241.631,194.445 246.806,188.783 253.463,188.013L253.463,190.764C248.316,191.516 244.359,195.952 244.359,201.306C244.359,207.186 249.133,211.96 255.013,211.96C260.351,211.96 264.778,208.026 265.548,202.9L268.301,202.9ZM253.463,198.433L248.5,198.433L248.5,195.562L261.5,195.562L261.5,198.433L256.563,198.433L256.563,209.065L253.463,209.065L253.463,198.433ZM265.561,199.8C264.901,195.139 261.219,191.444 256.563,190.764L256.563,188.013C262.726,188.725 267.619,193.632 268.311,199.8L265.561,199.8Z" style="fill:rgb(7,131,104);"/>
        </g>
    </g>
</svg>
