<?xml version="1.0" encoding="UTF-8" standalone="no"?>
<!DOCTYPE svg PUBLIC "-//W3C//DTD SVG 1.1//EN" "http://www.w3.org/Graphics/SVG/1.1/DTD/svg11.dtd">
<svg width="100%" height="100%" viewBox="0 0 121 23" version="1.1" xmlns="http://www.w3.org/2000/svg" xmlns:xlink="http://www.w3.org/1999/xlink" xml:space="preserve" xmlns:serif="http://www.serif.com/" style="fill-rule:evenodd;clip-rule:evenodd;stroke-linejoin:round;stroke-miterlimit:2;">
    <g transform="matrix(1,0,0,1,-549.564,-158.756)">
        <g transform="matrix(0.807446,0,0,0.807446,276.611,-174.935)">
            <g transform="matrix(23.2833,0,0,23.2833,367.921,435.595)">
                <path d="M0.04,-0.617L0.04,-0.727L0.62,-0.727L0.62,-0.617L0.395,-0.617L0.395,0L0.265,0L0.265,-0.617L0.04,-0.617Z" style="fill:rgb(7,131,104);fill-rule:nonzero;"/>
            </g>
            <g transform="matrix(23.2833,0,0,23.2833,382.119,435.595)">
                <path d="M0.066,0L0.066,-0.545L0.195,-0.545L0.195,0L0.066,0ZM0.131,-0.623C0.11,-0.623 0.093,-0.63 0.078,-0.643C0.063,-0.657 0.056,-0.673 0.056,-0.692C0.056,-0.712 0.063,-0.728 0.078,-0.742C0.093,-0.756 0.11,-0.762 0.131,-0.762C0.151,-0.762 0.169,-0.756 0.183,-0.742C0.198,-0.728 0.205,-0.712 0.205,-0.692C0.205,-0.673 0.198,-0.657 0.183,-0.643C0.169,-0.63 0.151,-0.623 0.131,-0.623Z" style="fill:rgb(7,131,104);fill-rule:nonzero;"/>
            </g>
            <g transform="matrix(23.2833,0,0,23.2833,387.606,435.595)">
                <path d="M0.066,0L0.066,-0.545L0.189,-0.545L0.189,-0.453L0.195,-0.453C0.207,-0.484 0.225,-0.508 0.252,-0.526C0.278,-0.544 0.309,-0.553 0.346,-0.553C0.383,-0.553 0.414,-0.544 0.439,-0.526C0.465,-0.508 0.483,-0.484 0.493,-0.453L0.499,-0.453C0.511,-0.483 0.531,-0.507 0.56,-0.525C0.589,-0.544 0.623,-0.553 0.663,-0.553C0.713,-0.553 0.754,-0.537 0.786,-0.505C0.817,-0.473 0.833,-0.427 0.833,-0.366L0.833,0L0.704,0L0.704,-0.346C0.704,-0.38 0.695,-0.405 0.677,-0.421C0.659,-0.436 0.637,-0.444 0.611,-0.444C0.58,-0.444 0.556,-0.435 0.539,-0.415C0.521,-0.396 0.512,-0.371 0.512,-0.34L0.512,0L0.386,0L0.386,-0.352C0.386,-0.38 0.378,-0.402 0.361,-0.419C0.344,-0.436 0.322,-0.444 0.295,-0.444C0.267,-0.444 0.243,-0.434 0.224,-0.413C0.204,-0.392 0.195,-0.365 0.195,-0.332L0.195,0L0.066,0Z" style="fill:rgb(7,131,104);fill-rule:nonzero;"/>
            </g>
            <g transform="matrix(23.2833,0,0,23.2833,407.81,435.595)">
                <path d="M0.308,0.011C0.253,0.011 0.206,-0.001 0.166,-0.024C0.126,-0.047 0.096,-0.079 0.075,-0.121C0.053,-0.163 0.043,-0.212 0.043,-0.27C0.043,-0.326 0.053,-0.375 0.075,-0.417C0.096,-0.46 0.126,-0.493 0.165,-0.517C0.203,-0.541 0.249,-0.553 0.301,-0.553C0.346,-0.553 0.387,-0.543 0.425,-0.524C0.463,-0.504 0.493,-0.474 0.516,-0.434C0.539,-0.393 0.55,-0.341 0.55,-0.277L0.55,-0.238L0.17,-0.238C0.171,-0.191 0.184,-0.155 0.209,-0.129C0.234,-0.103 0.268,-0.089 0.309,-0.089C0.337,-0.089 0.361,-0.095 0.381,-0.107C0.401,-0.119 0.416,-0.137 0.425,-0.16L0.545,-0.146C0.533,-0.099 0.507,-0.061 0.465,-0.032C0.424,-0.004 0.371,0.011 0.308,0.011ZM0.17,-0.324L0.427,-0.324C0.427,-0.361 0.415,-0.392 0.392,-0.416C0.369,-0.44 0.339,-0.452 0.303,-0.452C0.264,-0.452 0.233,-0.44 0.209,-0.414C0.185,-0.389 0.172,-0.359 0.17,-0.324Z" style="fill:rgb(7,131,104);fill-rule:nonzero;"/>
            </g>
            <g transform="matrix(23.2833,0,0,23.2833,420.911,435.595)">
                <path d="M0.497,-0.401L0.38,-0.388C0.375,-0.406 0.364,-0.422 0.348,-0.436C0.332,-0.45 0.309,-0.457 0.279,-0.457C0.253,-0.457 0.23,-0.451 0.212,-0.439C0.194,-0.428 0.185,-0.413 0.185,-0.394C0.185,-0.378 0.191,-0.365 0.203,-0.355C0.215,-0.345 0.235,-0.337 0.262,-0.331L0.355,-0.311C0.458,-0.289 0.509,-0.24 0.509,-0.163C0.509,-0.129 0.499,-0.099 0.479,-0.073C0.459,-0.046 0.432,-0.026 0.397,-0.011C0.362,0.003 0.321,0.011 0.276,0.011C0.209,0.011 0.155,-0.003 0.115,-0.032C0.074,-0.06 0.05,-0.099 0.042,-0.149L0.167,-0.161C0.178,-0.111 0.214,-0.086 0.276,-0.086C0.306,-0.086 0.331,-0.093 0.349,-0.105C0.368,-0.117 0.377,-0.133 0.377,-0.152C0.377,-0.182 0.353,-0.203 0.304,-0.214L0.211,-0.233C0.158,-0.244 0.12,-0.263 0.094,-0.289C0.069,-0.314 0.057,-0.347 0.057,-0.387C0.057,-0.421 0.066,-0.45 0.085,-0.475C0.103,-0.499 0.129,-0.519 0.162,-0.532C0.195,-0.546 0.234,-0.553 0.278,-0.553C0.342,-0.553 0.392,-0.539 0.429,-0.512C0.466,-0.484 0.488,-0.447 0.497,-0.401Z" style="fill:rgb(7,131,104);fill-rule:nonzero;"/>
            </g>
            <g transform="matrix(23.2833,0,0,23.2833,432.995,435.595)">
                <path d="M0.338,-0.545L0.338,-0.446L0.231,-0.446L0.231,-0.164C0.231,-0.138 0.237,-0.121 0.248,-0.113C0.259,-0.105 0.273,-0.101 0.289,-0.101C0.297,-0.101 0.305,-0.101 0.311,-0.103C0.318,-0.104 0.323,-0.105 0.327,-0.106L0.348,-0.005C0.342,-0.003 0.332,0 0.319,0.002C0.306,0.005 0.291,0.007 0.273,0.007C0.224,0.009 0.184,-0.003 0.151,-0.028C0.118,-0.053 0.102,-0.091 0.102,-0.143L0.102,-0.446L0.025,-0.446L0.025,-0.545L0.102,-0.545L0.102,-0.676L0.231,-0.676L0.231,-0.545L0.338,-0.545Z" style="fill:rgb(7,131,104);fill-rule:nonzero;"/>
            </g>
            <g transform="matrix(23.2833,0,0,23.2833,441.376,435.595)">
                <path d="M0.223,0.011C0.171,0.011 0.127,-0.003 0.093,-0.031C0.058,-0.059 0.04,-0.1 0.04,-0.153C0.04,-0.194 0.05,-0.226 0.07,-0.248C0.09,-0.271 0.116,-0.287 0.147,-0.298C0.179,-0.308 0.212,-0.315 0.248,-0.319C0.296,-0.324 0.33,-0.329 0.351,-0.333C0.372,-0.338 0.382,-0.349 0.382,-0.368L0.382,-0.37C0.382,-0.397 0.375,-0.417 0.359,-0.432C0.343,-0.447 0.32,-0.454 0.29,-0.454C0.259,-0.454 0.234,-0.447 0.215,-0.434C0.197,-0.42 0.185,-0.404 0.178,-0.385L0.058,-0.402C0.072,-0.452 0.1,-0.489 0.142,-0.515C0.183,-0.54 0.232,-0.553 0.289,-0.553C0.315,-0.553 0.342,-0.549 0.368,-0.543C0.394,-0.537 0.417,-0.527 0.439,-0.513C0.461,-0.499 0.478,-0.479 0.491,-0.455C0.504,-0.431 0.511,-0.401 0.511,-0.365L0.511,0L0.387,0L0.387,-0.075L0.383,-0.075C0.372,-0.052 0.353,-0.032 0.327,-0.015C0.3,0.002 0.266,0.011 0.223,0.011ZM0.256,-0.083C0.295,-0.083 0.326,-0.095 0.349,-0.117C0.371,-0.139 0.383,-0.165 0.383,-0.196L0.383,-0.26C0.377,-0.255 0.367,-0.251 0.353,-0.248C0.338,-0.245 0.323,-0.242 0.306,-0.239C0.29,-0.237 0.276,-0.235 0.265,-0.233C0.236,-0.229 0.212,-0.221 0.193,-0.21C0.174,-0.198 0.164,-0.18 0.164,-0.155C0.164,-0.132 0.173,-0.114 0.19,-0.102C0.208,-0.089 0.23,-0.083 0.256,-0.083Z" style="fill:rgb(7,131,104);fill-rule:nonzero;"/>
            </g>
            <g transform="matrix(23.2833,0,0,23.2833,454.172,435.595)">
                <path d="M0.066,0L0.066,-0.545L0.189,-0.545L0.189,-0.453L0.195,-0.453C0.207,-0.484 0.225,-0.508 0.252,-0.526C0.278,-0.544 0.309,-0.553 0.346,-0.553C0.383,-0.553 0.414,-0.544 0.439,-0.526C0.465,-0.508 0.483,-0.484 0.493,-0.453L0.499,-0.453C0.511,-0.483 0.531,-0.507 0.56,-0.525C0.589,-0.544 0.623,-0.553 0.663,-0.553C0.713,-0.553 0.754,-0.537 0.786,-0.505C0.817,-0.473 0.833,-0.427 0.833,-0.366L0.833,0L0.704,0L0.704,-0.346C0.704,-0.38 0.695,-0.405 0.677,-0.421C0.659,-0.436 0.637,-0.444 0.611,-0.444C0.58,-0.444 0.556,-0.435 0.539,-0.415C0.521,-0.396 0.512,-0.371 0.512,-0.34L0.512,0L0.386,0L0.386,-0.352C0.386,-0.38 0.378,-0.402 0.361,-0.419C0.344,-0.436 0.322,-0.444 0.295,-0.444C0.267,-0.444 0.243,-0.434 0.224,-0.413C0.204,-0.392 0.195,-0.365 0.195,-0.332L0.195,0L0.066,0Z" style="fill:rgb(7,131,104);fill-rule:nonzero;"/>
            </g>
            <g transform="matrix(23.2833,0,0,23.2833,474.259,435.595)">
                <path d="M0.066,0.205L0.066,-0.545L0.192,-0.545L0.192,-0.455L0.2,-0.455C0.207,-0.469 0.216,-0.483 0.228,-0.498C0.24,-0.513 0.256,-0.526 0.277,-0.536C0.298,-0.547 0.324,-0.553 0.356,-0.553C0.398,-0.553 0.436,-0.542 0.47,-0.52C0.504,-0.499 0.531,-0.467 0.551,-0.425C0.571,-0.384 0.581,-0.333 0.581,-0.272C0.581,-0.212 0.571,-0.161 0.551,-0.119C0.532,-0.077 0.505,-0.045 0.471,-0.023C0.437,-0.001 0.399,0.01 0.356,0.01C0.325,0.01 0.299,0.004 0.278,-0.006C0.258,-0.016 0.241,-0.029 0.229,-0.044C0.216,-0.059 0.207,-0.073 0.2,-0.086L0.195,-0.086L0.195,0.205L0.066,0.205ZM0.192,-0.273C0.192,-0.22 0.203,-0.177 0.225,-0.145C0.248,-0.112 0.279,-0.096 0.32,-0.096C0.363,-0.096 0.395,-0.113 0.417,-0.146C0.439,-0.179 0.45,-0.222 0.45,-0.273C0.45,-0.324 0.439,-0.365 0.417,-0.398C0.395,-0.431 0.363,-0.447 0.32,-0.447C0.279,-0.447 0.247,-0.431 0.225,-0.4C0.203,-0.368 0.192,-0.326 0.192,-0.273Z" style="fill:rgb(7,131,104);fill-rule:nonzero;"/>
            </g>
        </g>
        <g transform="matrix(1,0,0,1,519.531,109.608)">
            <g transform="matrix(1,0,0,1,-519.531,-109.608)">
                <path d="M572.447,171.712C571.677,177.312 566.868,181.631 561.059,181.631C554.714,181.631 549.564,176.48 549.564,170.136C549.564,164.345 553.854,159.549 559.427,158.756L559.427,161.248C555.218,162.017 552.024,165.706 552.024,170.136C552.024,175.122 556.072,179.171 561.059,179.171C565.508,179.171 569.21,175.948 569.957,171.712L572.447,171.712ZM559.736,168.56L555.683,168.56L555.683,166.044L566.435,166.044L566.435,168.56L562.382,168.56L562.382,176.116L559.736,176.116L559.736,168.56ZM569.957,168.56C569.304,164.854 566.389,161.924 562.691,161.248L562.691,158.756C567.749,159.476 571.751,163.494 572.447,168.56L569.957,168.56Z" style="fill:rgb(7,131,104);"/>
            </g>
        </g>
    </g>
</svg>
