<svg width="157" height="30" viewBox="0 0 157 30" fill="none" xmlns="http://www.w3.org/2000/svg">
<path d="M43.6172 6.53125C44.6797 6.57812 45.5391 6.60156 46.1953 6.60156C46.8516 6.60156 47.7109 6.57812 48.7734 6.53125C49.8359 6.48438 50.6953 6.46094 51.3516 6.46094C51.7422 6.46094 52.2812 6.375 52.9688 6.20312L53.4141 10.0469C53.3047 10.1562 53.0781 10.2109 52.7344 10.2109C52.5938 10.2109 52.5156 10.1719 52.5 10.0938C52.1094 8.54688 51.2734 7.77344 49.9922 7.77344C48.7266 7.77344 48.0625 7.91406 48 8.19531C47.875 8.63281 47.8125 9.32812 47.8125 10.2812V18.7422C47.8125 19.5234 47.875 20.1562 48 20.6406C48.0312 20.75 48.2422 20.875 48.6328 21.0156C49.0391 21.1562 49.3125 21.2266 49.4531 21.2266C49.5156 21.2266 49.5469 21.375 49.5469 21.6719C49.5469 21.8594 49.5312 22 49.5 22.0938C49.3906 22.0938 48.9219 22.0625 48.0938 22C47.2656 21.9375 46.6484 21.9062 46.2422 21.9062C45.8203 21.9062 45.2031 21.9375 44.3906 22C43.5781 22.0469 43.0625 22.0781 42.8438 22.0938C42.7812 22.0312 42.75 21.9062 42.75 21.7188C42.75 21.3906 42.7734 21.2266 42.8203 21.2266C42.9922 21.2266 43.2812 21.1641 43.6875 21.0391C44.0938 20.8984 44.3203 20.7656 44.3672 20.6406C44.4766 20.2188 44.5312 19.6172 44.5312 18.8359V10.3516C44.5312 9.13281 44.4688 8.41406 44.3438 8.19531C44.2969 8.10156 44.25 8.03906 44.2031 8.00781C44.1719 7.96094 44.0078 7.91406 43.7109 7.86719C43.4141 7.80469 42.9844 7.77344 42.4219 7.77344C41.7812 7.77344 41.2578 7.95312 40.8516 8.3125C40.4453 8.65625 40.1328 9.24219 39.9141 10.0703C39.8984 10.1484 39.8203 10.1875 39.6797 10.1875C39.3359 10.1875 39.1094 10.1328 39 10.0234L39.4453 6.20312C40.1328 6.375 40.6719 6.46094 41.0625 6.46094C41.7188 6.46094 42.5703 6.48438 43.6172 6.53125ZM56.5078 8.80469C56.1641 8.46094 55.9922 8.04688 55.9922 7.5625C55.9922 7.07813 56.1641 6.67188 56.5078 6.34375C56.8516 6 57.2578 5.82812 57.7266 5.82812C58.2109 5.82812 58.6172 6 58.9453 6.34375C59.2891 6.67188 59.4609 7.07813 59.4609 7.5625C59.4609 8.04688 59.2891 8.46094 58.9453 8.80469C58.6172 9.13281 58.2109 9.29688 57.7266 9.29688C57.2578 9.29688 56.8516 9.13281 56.5078 8.80469ZM59.4609 18.5078C59.4609 19.5078 59.5156 20.2188 59.625 20.6406C59.6562 20.75 59.875 20.875 60.2812 21.0156C60.7031 21.1562 60.9766 21.2266 61.1016 21.2266C61.1641 21.2266 61.1953 21.3594 61.1953 21.625C61.1953 21.875 61.1797 22.0312 61.1484 22.0938C60.9922 22.0781 60.5078 22.0469 59.6953 22C58.8828 21.9375 58.2969 21.9062 57.9375 21.9062C57.5625 21.9062 56.9766 21.9375 56.1797 22C55.3984 22.0469 54.9141 22.0781 54.7266 22.0938C54.6797 22.0312 54.6562 21.875 54.6562 21.625C54.6562 21.3594 54.6797 21.2266 54.7266 21.2266C54.9141 21.2266 55.2031 21.1562 55.5938 21.0156C56 20.875 56.2188 20.75 56.25 20.6406C56.3594 20.1719 56.4141 19.5781 56.4141 18.8594V15.6484C56.4141 14.7734 56.2734 14.1875 55.9922 13.8906C55.8828 13.7656 55.7188 13.6641 55.5 13.5859C55.2969 13.5078 55.1094 13.4531 54.9375 13.4219C54.7812 13.3906 54.7031 13.3672 54.7031 13.3516C54.7031 12.8047 54.7422 12.5312 54.8203 12.5312C55.1328 12.5312 55.8125 12.4297 56.8594 12.2266C57.9219 12.0078 58.6719 11.8281 59.1094 11.6875C59.125 11.6875 59.1719 11.6797 59.25 11.6641C59.3281 11.6328 59.3672 11.6172 59.3672 11.6172C59.4609 11.6172 59.5391 11.6719 59.6016 11.7812C59.6797 11.875 59.7188 11.9531 59.7188 12.0156C59.7031 12.1406 59.6719 12.375 59.625 12.7188C59.5781 13.0625 59.5391 13.3672 59.5078 13.6328C59.4766 13.8828 59.4609 14.125 59.4609 14.3594V18.5078ZM70.7344 11.5469C71.8594 11.5469 72.6875 12.0859 73.2188 13.1641C74.1875 12.1016 75.5938 11.5625 77.4375 11.5469C78.3438 11.5469 79.0781 11.9297 79.6406 12.6953C80.2188 13.4609 80.5078 14.625 80.5078 16.1875V18.5078C80.5078 19.5078 80.5625 20.2188 80.6719 20.6406C80.7031 20.75 80.9141 20.875 81.3047 21.0156C81.6953 21.1562 81.9609 21.2266 82.1016 21.2266C82.1484 21.2266 82.1719 21.3594 82.1719 21.625C82.1875 21.875 82.1797 22.0312 82.1484 22.0938C81.9766 22.0781 81.4922 22.0469 80.6953 22C79.9141 21.9375 79.3438 21.9062 78.9844 21.9062C78.6094 21.9062 78.0312 21.9375 77.25 22C76.4844 22.0469 76.0078 22.0781 75.8203 22.0938C75.7578 22.0312 75.7266 21.875 75.7266 21.625C75.7266 21.3594 75.7578 21.2266 75.8203 21.2266C75.9922 21.2266 76.2734 21.1562 76.6641 21.0156C77.0547 20.875 77.2656 20.75 77.2969 20.6406C77.4062 20.1719 77.4609 19.5781 77.4609 18.8594V16.75C77.4609 15.6719 77.2969 14.8672 76.9688 14.3359C76.6562 13.8047 76.1484 13.5391 75.4453 13.5391C74.5703 13.5391 74.0234 13.8359 73.8047 14.4297C73.7578 14.5547 73.7422 14.7188 73.7578 14.9219C73.7891 15.2031 73.8047 15.625 73.8047 16.1875V18.5078C73.8047 19.5078 73.8594 20.2188 73.9688 20.6406C74 20.75 74.2109 20.875 74.6016 21.0156C74.9922 21.1562 75.2578 21.2266 75.3984 21.2266C75.4453 21.2266 75.4688 21.3594 75.4688 21.625C75.4844 21.875 75.4766 22.0312 75.4453 22.0938C75.2734 22.0781 74.7891 22.0469 73.9922 22C73.2109 21.9375 72.6406 21.9062 72.2812 21.9062C71.9062 21.9062 71.3281 21.9375 70.5469 22C69.7812 22.0469 69.3047 22.0781 69.1172 22.0938C69.0547 22.0312 69.0234 21.875 69.0234 21.625C69.0234 21.3594 69.0547 21.2266 69.1172 21.2266C69.2891 21.2266 69.5703 21.1562 69.9609 21.0156C70.3516 20.875 70.5625 20.75 70.5938 20.6406C70.7031 20.1719 70.7578 19.5781 70.7578 18.8594V16.75C70.7578 15.5938 70.5938 14.7734 70.2656 14.2891C69.9531 13.7891 69.4453 13.5391 68.7422 13.5391C68.2578 13.5391 67.8672 13.6328 67.5703 13.8203C67.2734 13.9922 67.125 14.2422 67.125 14.5703V18.5078C67.125 19.5078 67.1797 20.2188 67.2891 20.6406C67.3203 20.75 67.5234 20.875 67.8984 21.0156C68.2891 21.1562 68.5469 21.2266 68.6719 21.2266C68.7188 21.2266 68.7422 21.3594 68.7422 21.625C68.7578 21.875 68.75 22.0312 68.7188 22.0938C68.5312 22.0781 68.0547 22.0469 67.2891 22C66.5234 21.9375 65.9609 21.9062 65.6016 21.9062C65.2266 21.9062 64.6406 21.9375 63.8438 22C63.0469 22.0469 62.5625 22.0781 62.3906 22.0938C62.3281 22.0312 62.2969 21.875 62.2969 21.625C62.2969 21.3594 62.3281 21.2266 62.3906 21.2266C62.5625 21.2266 62.8516 21.1562 63.2578 21.0156C63.6641 20.875 63.8828 20.75 63.9141 20.6406C64.0234 20.1719 64.0781 19.5781 64.0781 18.8594V15.6484C64.0781 14.7734 63.9375 14.1875 63.6562 13.8906C63.5469 13.7656 63.3828 13.6641 63.1641 13.5859C62.9453 13.5078 62.7578 13.4531 62.6016 13.4219C62.4453 13.3906 62.3672 13.3672 62.3672 13.3516C62.3672 12.8047 62.4062 12.5312 62.4844 12.5312C62.6719 12.5312 62.9844 12.4922 63.4219 12.4141C63.8594 12.3203 64.4297 12.1953 65.1328 12.0391C65.8359 11.8828 66.3828 11.7656 66.7734 11.6875C66.8047 11.6875 66.8359 11.6797 66.8672 11.6641C66.9141 11.6484 66.9531 11.6406 66.9844 11.6406L67.0312 11.6172C67.1094 11.6172 67.1875 11.6719 67.2656 11.7812C67.3438 11.875 67.3828 11.9531 67.3828 12.0156C67.3203 12.4531 67.2891 12.6953 67.2891 12.7422C67.2891 12.8203 67.2969 12.8672 67.3125 12.8828C67.3438 12.8828 67.3984 12.8438 67.4766 12.7656C68.3516 11.9531 69.4375 11.5469 70.7344 11.5469ZM88.0547 12.8125C87.4453 12.8125 87 13.1094 86.7188 13.7031C86.4375 14.2812 86.2969 14.8516 86.2969 15.4141C86.2969 15.5078 86.3516 15.5547 86.4609 15.5547H89.4375C89.6562 15.5547 89.7656 15.4062 89.7656 15.1094C89.7656 14.5156 89.6016 13.9844 89.2734 13.5156C88.9609 13.0469 88.5547 12.8125 88.0547 12.8125ZM88.1719 11.5234C89.5781 11.5234 90.7031 12.0156 91.5469 13C92.4062 13.9688 92.8359 14.9609 92.8359 15.9766C92.8359 16.3359 92.7578 16.5703 92.6016 16.6797C92.4609 16.7891 92.1719 16.8438 91.7344 16.8438H86.4375C86.3438 16.8438 86.2969 16.8984 86.2969 17.0078C86.2969 17.8516 86.5312 18.6094 87 19.2812C87.4844 19.9531 88.1719 20.2891 89.0625 20.2891C89.5781 20.2891 90.0703 20.2188 90.5391 20.0781C91.0078 19.9219 91.3359 19.7891 91.5234 19.6797C91.7109 19.5547 91.9609 19.375 92.2734 19.1406C92.4141 19.2031 92.4844 19.3516 92.4844 19.5859C92.4844 19.7734 92.4531 19.9297 92.3906 20.0547C92.2344 20.4297 91.7656 20.875 90.9844 21.3906C90.2031 21.9062 89.3281 22.1641 88.3594 22.1641C86.9219 22.1641 85.6797 21.6406 84.6328 20.5938C83.6016 19.5469 83.0859 18.2891 83.0859 16.8203C83.0859 15.3203 83.5547 14.0625 84.4922 13.0469C85.4297 12.0312 86.6562 11.5234 88.1719 11.5234ZM97.9922 11.4766C99.3672 11.4766 100.383 11.6328 101.039 11.9453C101.195 12.6641 101.273 13.6328 101.273 14.8516C101.273 14.9922 101.172 15.0625 100.969 15.0625C100.484 15.0625 100.227 15 100.195 14.875C100.055 14.2188 99.8125 13.7031 99.4688 13.3281C99.1406 12.9531 98.6094 12.7656 97.875 12.7656C97.5312 12.7656 97.25 12.8516 97.0312 13.0234C96.8125 13.1797 96.7031 13.4141 96.7031 13.7266C96.7031 14.0859 96.8594 14.3984 97.1719 14.6641C97.4844 14.9141 97.9453 15.1875 98.5547 15.4844C98.9766 15.6875 99.3047 15.8594 99.5391 16C99.7891 16.1406 100.109 16.3672 100.5 16.6797C100.906 16.9766 101.203 17.3281 101.391 17.7344C101.594 18.1406 101.695 18.5938 101.695 19.0938C101.695 20.125 101.297 20.9062 100.5 21.4375C99.7188 21.9688 98.7188 22.2344 97.5 22.2344C96.9531 22.2344 96.3438 22.1484 95.6719 21.9766C95 21.8047 94.5156 21.5938 94.2188 21.3438C94.0312 20.2656 93.9375 19.3125 93.9375 18.4844C94 18.4375 94.1172 18.4141 94.2891 18.4141C94.7891 18.4141 95.0469 18.4844 95.0625 18.625C95.3281 20.1719 96.1719 20.9453 97.5938 20.9453C97.9688 20.9453 98.2812 20.8594 98.5312 20.6875C98.7812 20.5156 98.9062 20.2734 98.9062 19.9609C98.9062 19.5703 98.7344 19.2422 98.3906 18.9766C98.0625 18.7109 97.4609 18.3594 96.5859 17.9219C95.6797 17.4844 95.0078 17.0078 94.5703 16.4922C94.1328 15.9609 93.9141 15.3125 93.9141 14.5469C93.9141 13.4844 94.3203 12.7109 95.1328 12.2266C95.9453 11.7266 96.8984 11.4766 97.9922 11.4766ZM104.578 13.3281H103.055C102.93 13.3281 102.867 13.0859 102.867 12.6016C102.867 12.4766 102.883 12.3906 102.914 12.3438C103.789 11.9062 104.492 11.4844 105.023 11.0781C105.258 10.9062 105.531 10.6875 105.844 10.4219C106.156 10.1406 106.422 9.90625 106.641 9.71875C106.875 9.51562 107 9.40625 107.016 9.39062C107.141 9.39062 107.273 9.42188 107.414 9.48438C107.555 9.53125 107.625 9.58594 107.625 9.64844V11.9453H110.156C110.281 11.9453 110.344 12.0234 110.344 12.1797C110.344 12.6328 110.266 13.0156 110.109 13.3281H107.625V18.8828C107.625 20.0703 108.047 20.6641 108.891 20.6641C109.125 20.6641 109.336 20.6406 109.523 20.5938C109.727 20.5312 109.883 20.4688 109.992 20.4062C110.102 20.3438 110.164 20.3125 110.18 20.3125C110.242 20.3125 110.305 20.3906 110.367 20.5469C110.445 20.7031 110.484 20.8203 110.484 20.8984C110.484 21.0859 110.164 21.3438 109.523 21.6719C108.883 22 108.281 22.1641 107.719 22.1641C106.859 22.1641 106.117 21.8984 105.492 21.3672C104.883 20.8203 104.578 19.9453 104.578 18.7422V13.3281ZM116.016 20.4766C116.422 20.4766 116.734 20.3828 116.953 20.1953C117.188 19.9922 117.305 19.75 117.305 19.4688V17.1016C117.273 17.1172 117.117 17.1719 116.836 17.2656C116.57 17.3438 116.398 17.3984 116.32 17.4297C116.242 17.4609 116.094 17.5234 115.875 17.6172C115.656 17.6953 115.5 17.7734 115.406 17.8516C115.328 17.9141 115.227 18 115.102 18.1094C114.977 18.2188 114.891 18.3359 114.844 18.4609C114.797 18.5859 114.773 18.7266 114.773 18.8828C114.773 19.4453 114.891 19.8516 115.125 20.1016C115.375 20.3516 115.672 20.4766 116.016 20.4766ZM116.953 11.4766C118.047 11.4766 118.883 11.7812 119.461 12.3906C120.055 12.9844 120.352 14.0703 120.352 15.6484V19.4453C120.352 19.9766 120.539 20.2422 120.914 20.2422C121.18 20.2422 121.445 20.1406 121.711 19.9375C121.82 20 121.875 20.1172 121.875 20.2891C121.875 20.6797 121.82 20.9688 121.711 21.1562C121.492 21.3594 121.133 21.5781 120.633 21.8125C120.148 22.0312 119.688 22.1406 119.25 22.1406C118.875 22.1406 118.516 22.0312 118.172 21.8125C117.828 21.5781 117.602 21.3125 117.492 21.0156C117.477 21.0156 117.414 21.0625 117.305 21.1562C117.195 21.2344 117.055 21.3281 116.883 21.4375C116.711 21.5469 116.508 21.6562 116.273 21.7656C116.055 21.875 115.789 21.9688 115.477 22.0469C115.164 22.125 114.852 22.1641 114.539 22.1641C113.68 22.1641 112.992 21.9297 112.477 21.4609C111.977 20.9766 111.727 20.375 111.727 19.6562C111.727 19.2344 111.82 18.8516 112.008 18.5078C112.211 18.1484 112.438 17.8594 112.688 17.6406C112.953 17.4062 113.305 17.1953 113.742 17.0078C114.18 16.8047 114.555 16.6562 114.867 16.5625C115.18 16.4531 115.578 16.3359 116.062 16.2109C116.562 16.0703 116.906 15.9688 117.094 15.9062C117.234 15.8594 117.305 15.7422 117.305 15.5547V14.7109C117.305 13.4297 116.914 12.7891 116.133 12.7891C115.227 12.7891 114.773 13.3125 114.773 14.3594C114.773 14.7031 114.633 14.9609 114.352 15.1328C114.07 15.2891 113.758 15.3672 113.414 15.3672C112.695 15.3672 112.203 15.1328 111.938 14.6641C111.938 13.8672 112.461 13.1406 113.508 12.4844C114.57 11.8125 115.719 11.4766 116.953 11.4766ZM131.531 11.5469C132.656 11.5469 133.484 12.0859 134.016 13.1641C134.984 12.1016 136.391 11.5625 138.234 11.5469C139.141 11.5469 139.875 11.9297 140.438 12.6953C141.016 13.4609 141.305 14.625 141.305 16.1875V18.5078C141.305 19.5078 141.359 20.2188 141.469 20.6406C141.5 20.75 141.711 20.875 142.102 21.0156C142.492 21.1562 142.758 21.2266 142.898 21.2266C142.945 21.2266 142.969 21.3594 142.969 21.625C142.984 21.875 142.977 22.0312 142.945 22.0938C142.773 22.0781 142.289 22.0469 141.492 22C140.711 21.9375 140.141 21.9062 139.781 21.9062C139.406 21.9062 138.828 21.9375 138.047 22C137.281 22.0469 136.805 22.0781 136.617 22.0938C136.555 22.0312 136.523 21.875 136.523 21.625C136.523 21.3594 136.555 21.2266 136.617 21.2266C136.789 21.2266 137.07 21.1562 137.461 21.0156C137.852 20.875 138.062 20.75 138.094 20.6406C138.203 20.1719 138.258 19.5781 138.258 18.8594V16.75C138.258 15.6719 138.094 14.8672 137.766 14.3359C137.453 13.8047 136.945 13.5391 136.242 13.5391C135.367 13.5391 134.82 13.8359 134.602 14.4297C134.555 14.5547 134.539 14.7188 134.555 14.9219C134.586 15.2031 134.602 15.625 134.602 16.1875V18.5078C134.602 19.5078 134.656 20.2188 134.766 20.6406C134.797 20.75 135.008 20.875 135.398 21.0156C135.789 21.1562 136.055 21.2266 136.195 21.2266C136.242 21.2266 136.266 21.3594 136.266 21.625C136.281 21.875 136.273 22.0312 136.242 22.0938C136.07 22.0781 135.586 22.0469 134.789 22C134.008 21.9375 133.438 21.9062 133.078 21.9062C132.703 21.9062 132.125 21.9375 131.344 22C130.578 22.0469 130.102 22.0781 129.914 22.0938C129.852 22.0312 129.82 21.875 129.82 21.625C129.82 21.3594 129.852 21.2266 129.914 21.2266C130.086 21.2266 130.367 21.1562 130.758 21.0156C131.148 20.875 131.359 20.75 131.391 20.6406C131.5 20.1719 131.555 19.5781 131.555 18.8594V16.75C131.555 15.5938 131.391 14.7734 131.062 14.2891C130.75 13.7891 130.242 13.5391 129.539 13.5391C129.055 13.5391 128.664 13.6328 128.367 13.8203C128.07 13.9922 127.922 14.2422 127.922 14.5703V18.5078C127.922 19.5078 127.977 20.2188 128.086 20.6406C128.117 20.75 128.32 20.875 128.695 21.0156C129.086 21.1562 129.344 21.2266 129.469 21.2266C129.516 21.2266 129.539 21.3594 129.539 21.625C129.555 21.875 129.547 22.0312 129.516 22.0938C129.328 22.0781 128.852 22.0469 128.086 22C127.32 21.9375 126.758 21.9062 126.398 21.9062C126.023 21.9062 125.438 21.9375 124.641 22C123.844 22.0469 123.359 22.0781 123.188 22.0938C123.125 22.0312 123.094 21.875 123.094 21.625C123.094 21.3594 123.125 21.2266 123.188 21.2266C123.359 21.2266 123.648 21.1562 124.055 21.0156C124.461 20.875 124.68 20.75 124.711 20.6406C124.82 20.1719 124.875 19.5781 124.875 18.8594V15.6484C124.875 14.7734 124.734 14.1875 124.453 13.8906C124.344 13.7656 124.18 13.6641 123.961 13.5859C123.742 13.5078 123.555 13.4531 123.398 13.4219C123.242 13.3906 123.164 13.3672 123.164 13.3516C123.164 12.8047 123.203 12.5312 123.281 12.5312C123.469 12.5312 123.781 12.4922 124.219 12.4141C124.656 12.3203 125.227 12.1953 125.93 12.0391C126.633 11.8828 127.18 11.7656 127.57 11.6875C127.602 11.6875 127.633 11.6797 127.664 11.6641C127.711 11.6484 127.75 11.6406 127.781 11.6406L127.828 11.6172C127.906 11.6172 127.984 11.6719 128.062 11.7812C128.141 11.875 128.18 11.9531 128.18 12.0156C128.117 12.4531 128.086 12.6953 128.086 12.7422C128.086 12.8203 128.094 12.8672 128.109 12.8828C128.141 12.8828 128.195 12.8438 128.273 12.7656C129.148 11.9531 130.234 11.5469 131.531 11.5469ZM150.82 11.5469C152.305 11.5469 153.531 12.0625 154.5 13.0938C155.484 14.125 155.977 15.3203 155.977 16.6797C155.977 18.4141 155.422 19.7656 154.312 20.7344C153.203 21.7031 151.805 22.1875 150.117 22.1875C149.93 22.1875 149.727 22.1719 149.508 22.1406C149.305 22.1094 149.133 22.0703 148.992 22.0234C148.852 21.9922 148.773 21.9766 148.758 21.9766C148.695 21.9766 148.664 22.1016 148.664 22.3516V23.5234C148.664 24.5234 148.719 25.2344 148.828 25.6562C148.859 25.7656 149.078 25.8906 149.484 26.0312C149.891 26.1719 150.164 26.2422 150.305 26.2422C150.352 26.2422 150.375 26.3672 150.375 26.6172C150.391 26.8828 150.383 27.0469 150.352 27.1094C150.18 27.0938 149.688 27.0547 148.875 26.9922C148.078 26.9453 147.5 26.9219 147.141 26.9219C146.766 26.9219 146.18 26.9453 145.383 26.9922C144.586 27.0547 144.102 27.0938 143.93 27.1094C143.867 27.0469 143.836 26.8828 143.836 26.6172C143.836 26.3672 143.867 26.2422 143.93 26.2422C144.102 26.2422 144.391 26.1719 144.797 26.0312C145.203 25.8906 145.422 25.7656 145.453 25.6562C145.562 25.1875 145.617 24.5938 145.617 23.875V15.6484C145.617 14.7734 145.477 14.1875 145.195 13.8906C145.086 13.7656 144.922 13.6641 144.703 13.5859C144.484 13.5078 144.297 13.4531 144.141 13.4219C143.984 13.3906 143.906 13.3672 143.906 13.3516C143.906 12.8047 143.945 12.5312 144.023 12.5312C144.977 12.5312 146.234 12.3047 147.797 11.8516C148.281 11.6953 148.539 11.6172 148.57 11.6172C148.664 11.6172 148.711 11.7188 148.711 11.9219C148.711 12.0156 148.695 12.1562 148.664 12.3438C149.352 11.8125 150.07 11.5469 150.82 11.5469ZM150.469 12.9062C149.922 12.9062 149.484 13.0703 149.156 13.3984C148.828 13.7266 148.664 14.1406 148.664 14.6406V19.0703C148.664 19.6641 148.859 20.125 149.25 20.4531C149.641 20.7656 150.055 20.9219 150.492 20.9219C151.898 20.9219 152.602 19.7656 152.602 17.4531C152.602 14.4219 151.891 12.9062 150.469 12.9062Z" fill="#078368"/>
<rect width="30" height="30" fill="#078368"/>
</svg>
