<?xml version="1.0" encoding="UTF-8" standalone="no"?>
<!DOCTYPE svg PUBLIC "-//W3C//DTD SVG 1.1//EN" "http://www.w3.org/Graphics/SVG/1.1/DTD/svg11.dtd">
<svg width="100%" height="100%" viewBox="0 0 29 30" version="1.1" xmlns="http://www.w3.org/2000/svg" xmlns:xlink="http://www.w3.org/1999/xlink" xml:space="preserve" xmlns:serif="http://www.serif.com/" style="fill-rule:evenodd;clip-rule:evenodd;stroke-linejoin:round;stroke-miterlimit:2;">
    <g transform="matrix(1,0,0,1,-505.697,-178.455)">
        <g transform="matrix(1,0,0,1,519.531,42.2366)">
            <g transform="matrix(0.850714,0,0,0.975634,-230.058,119.898)">
                <path d="M288.257,18.628C288.257,18.124 288.027,17.641 287.618,17.284C287.21,16.928 286.655,16.728 286.077,16.728L256.347,16.728C255.769,16.728 255.215,16.928 254.806,17.284C254.397,17.641 254.168,18.124 254.168,18.628L254.168,45.064C254.168,45.568 254.397,46.051 254.806,46.407C255.215,46.764 255.769,46.964 256.347,46.964L286.077,46.964C286.655,46.964 287.21,46.764 287.618,46.407C288.027,46.051 288.257,45.568 288.257,45.064L288.257,18.628Z" style="fill:rgb(7,131,104);"/>
            </g>
        </g>
        <g transform="matrix(1,0,0,1,519.531,42.2366)">
            <g transform="matrix(0.993093,0,0,0.993093,-40.5998,90.8827)">
                <g transform="matrix(1.00695,0,0,1.00695,-482.262,-134.045)">
                    <path d="M531.05,194.872C530.256,200.166 525.685,204.23 520.172,204.23C514.101,204.23 509.172,199.301 509.172,193.23C509.172,187.725 513.223,183.16 518.504,182.355L518.504,184.922C514.626,185.698 511.7,189.125 511.7,193.23C511.7,197.905 515.496,201.701 520.172,201.701C524.286,201.701 527.719,198.763 528.484,194.872L531.05,194.872ZM528.484,191.587C527.825,188.236 525.187,185.592 521.84,184.922L521.84,182.355C526.585,183.079 530.338,186.838 531.05,191.587L528.484,191.587Z" style="fill:white;"/>
                </g>
                <g transform="matrix(1.0497,0,0,1.0497,-547.473,-47.3443)">
                    <path d="M559.836,101.189L556.236,101.189L556.236,98.986L565.988,98.986L565.988,101.189L562.387,101.189L562.387,108.132L559.836,108.132L559.836,101.189Z" style="fill:white;"/>
                </g>
            </g>
        </g>
    </g>
</svg>
