<?xml version="1.0" encoding="UTF-8" standalone="no"?><!DOCTYPE svg PUBLIC "-//W3C//DTD SVG 1.1//EN" "http://www.w3.org/Graphics/SVG/1.1/DTD/svg11.dtd"><svg width="100%" height="100%" viewBox="0 0 59 11" version="1.1" xmlns="http://www.w3.org/2000/svg" xmlns:xlink="http://www.w3.org/1999/xlink" xml:space="preserve" xmlns:serif="http://www.serif.com/" style="fill-rule:evenodd;clip-rule:evenodd;stroke-linejoin:round;stroke-miterlimit:2;"><g><g transform="matrix(0.5,0,0,0.5,-184.148,-209.723)"><g transform="matrix(24,0,0,24,367.921,435.595)"><path d="M0.56,-0.578l0.022,0.173l-0.061,0.005l-0.039,-0.113c-0.006,-0.001 -0.013,-0.002 -0.02,-0.002c-0.007,0 -0.015,-0.001 -0.024,-0.001l-0.053,0c-0.007,0 -0.013,0.001 -0.017,0.002l-0.001,0.109c-0.001,0.028 -0.001,0.056 -0.001,0.085l0,0.091c0,0.036 0.001,0.069 0.001,0.098c0.001,0.029 0.001,0.052 0.002,0.067l0.085,0.013l-0.003,0.051l-0.304,0l-0.002,-0.051l0.084,-0.013c0.001,-0.015 0.002,-0.038 0.002,-0.067c0.001,-0.029 0.001,-0.062 0.001,-0.098l0,-0.091c0,-0.029 0,-0.057 0,-0.085c0,-0.028 -0.001,-0.052 -0.001,-0.073c0,-0.02 0,-0.032 -0.001,-0.036c-0.003,-0.001 -0.009,-0.002 -0.017,-0.002l-0.054,0c-0.008,0 -0.016,0.001 -0.024,0.001c-0.008,0 -0.015,0.001 -0.022,0.002l-0.037,0.115l-0.06,-0.006l0.02,-0.174c0.007,0 0.016,0 0.028,0.001c0.012,0.001 0.025,0.001 0.038,0.002c0.013,0 0.026,0.001 0.039,0.001c0.013,0.001 0.024,0.001 0.033,0.001l0.248,0c0.009,0 0.02,0 0.032,-0.001c0.012,0 0.025,-0.001 0.039,-0.001c0.014,-0.001 0.027,-0.001 0.038,-0.002c0.012,-0.001 0.021,-0.001 0.029,-0.001Z" style="fill:#fff;fill-rule:nonzero;"/></g><g transform="matrix(24,0,0,24,382.456,435.595)"><path d="M0.015,0l-0.003,-0.046l0.065,-0.016c0.001,-0.002 0.001,-0.008 0.002,-0.018c0.001,-0.009 0.001,-0.021 0.002,-0.035c0.001,-0.014 0.001,-0.029 0.001,-0.044l0.001,-0.073c0,-0.02 -0.001,-0.037 -0.002,-0.053c-0.001,-0.015 -0.004,-0.031 -0.007,-0.048l-0.065,-0.014l0,-0.044l0.179,-0.044l0.027,0.017c-0.002,0.021 -0.004,0.042 -0.005,0.063c-0.001,0.021 -0.001,0.045 -0.001,0.072l0,0.123c0,0.021 0,0.042 0.001,0.061c0.001,0.02 0.003,0.032 0.005,0.037l0.064,0.016l-0.003,0.046l-0.261,0Zm0.132,-0.515c-0.026,0 -0.047,-0.008 -0.062,-0.024c-0.014,-0.016 -0.022,-0.034 -0.022,-0.055c0,-0.021 0.008,-0.039 0.022,-0.055c0.015,-0.016 0.036,-0.024 0.062,-0.024c0.027,0 0.047,0.008 0.061,0.024c0.014,0.016 0.021,0.034 0.021,0.055c0,0.021 -0.007,0.039 -0.021,0.055c-0.014,0.016 -0.034,0.024 -0.061,0.024Z" style="fill:#fff;fill-rule:nonzero;"/></g><g transform="matrix(24,0,0,24,390.233,435.595)"><path d="M0.02,0l-0.003,-0.045l0.06,-0.017c0.001,-0.002 0.001,-0.008 0.002,-0.018c0.001,-0.009 0.001,-0.021 0.002,-0.035c0.001,-0.014 0.001,-0.029 0.001,-0.044l0.001,-0.073c0,-0.013 0,-0.025 -0.001,-0.036c-0.001,-0.011 -0.002,-0.022 -0.003,-0.032c-0.001,-0.011 -0.003,-0.022 -0.005,-0.033l-0.062,-0.014l0,-0.044l0.172,-0.044l0.027,0.017l-0.006,0.057l0.003,0.001c0.021,-0.027 0.042,-0.046 0.065,-0.058c0.022,-0.013 0.046,-0.019 0.071,-0.019c0.025,0 0.049,0.007 0.071,0.02c0.022,0.012 0.04,0.031 0.053,0.057c0.014,0.026 0.02,0.059 0.02,0.099l0.002,0.101c0,0.021 0.001,0.042 0.001,0.061c0.001,0.02 0.002,0.032 0.004,0.037l0.054,0.017l-0.003,0.045l-0.233,0l-0.002,-0.045l0.049,-0.017c0.002,-0.006 0.003,-0.014 0.003,-0.025c0.001,-0.01 0.001,-0.022 0.002,-0.035c0,-0.013 0,-0.025 0,-0.037l-0.001,-0.092c0,-0.023 -0.003,-0.042 -0.01,-0.056c-0.007,-0.013 -0.016,-0.023 -0.027,-0.029c-0.012,-0.007 -0.025,-0.01 -0.039,-0.01c-0.015,0 -0.03,0.004 -0.044,0.012c-0.014,0.007 -0.026,0.017 -0.036,0.03l0,0.144c0,0.021 0,0.042 0.001,0.061c0.001,0.02 0.003,0.032 0.005,0.037l0.054,0.017l-0.003,0.045l-0.245,0Zm0.573,0l-0.003,-0.045l0.051,-0.017c0.001,-0.006 0.002,-0.015 0.003,-0.025c0,-0.011 0.001,-0.023 0.001,-0.036c0,-0.013 0.001,-0.025 0.001,-0.036l-0.002,-0.083c0,-0.025 -0.004,-0.045 -0.011,-0.06c-0.007,-0.016 -0.017,-0.027 -0.029,-0.033c-0.013,-0.007 -0.027,-0.011 -0.042,-0.011c-0.015,0 -0.03,0.004 -0.045,0.011c-0.015,0.006 -0.027,0.017 -0.038,0.03l-0.028,-0.037c0.024,-0.031 0.049,-0.055 0.075,-0.071c0.026,-0.016 0.055,-0.024 0.085,-0.024c0.032,0 0.059,0.007 0.083,0.021c0.024,0.014 0.042,0.034 0.055,0.06c0.013,0.026 0.02,0.058 0.02,0.094l0.002,0.102c0,0.021 0,0.042 0,0.061c0.001,0.02 0.002,0.032 0.004,0.037l0.061,0.017l-0.003,0.045l-0.24,0Z" style="fill:#fff;fill-rule:nonzero;"/></g><g transform="matrix(24,0,0,24,410.169,435.595)"><path d="M0.252,0.008c-0.042,0 -0.08,-0.01 -0.113,-0.029c-0.033,-0.018 -0.058,-0.044 -0.077,-0.077c-0.019,-0.032 -0.028,-0.069 -0.028,-0.11c0,-0.046 0.011,-0.085 0.031,-0.12c0.021,-0.034 0.048,-0.061 0.082,-0.08c0.034,-0.02 0.069,-0.029 0.108,-0.029c0.058,0 0.102,0.018 0.134,0.054c0.031,0.035 0.047,0.081 0.047,0.138l0,0.023l-0.288,0l0,-0.05l0.191,0l-0.015,0.023l0,-0.034c0,-0.03 -0.007,-0.054 -0.02,-0.072c-0.014,-0.019 -0.033,-0.028 -0.057,-0.028c-0.016,0 -0.03,0.005 -0.043,0.014c-0.014,0.009 -0.024,0.023 -0.032,0.041c-0.007,0.019 -0.011,0.042 -0.011,0.07l0,0.021c0,0.045 0.013,0.081 0.037,0.109c0.025,0.028 0.058,0.042 0.099,0.042c0.022,0 0.042,-0.004 0.06,-0.012c0.019,-0.008 0.036,-0.022 0.053,-0.042l0.03,0.029c-0.018,0.039 -0.044,0.068 -0.077,0.089c-0.033,0.02 -0.07,0.03 -0.111,0.03Z" style="fill:#fff;fill-rule:nonzero;"/></g><g transform="matrix(24,0,0,24,421.397,435.595)"><path d="M0.19,0.008c-0.027,0 -0.054,-0.003 -0.081,-0.009c-0.026,-0.007 -0.049,-0.015 -0.068,-0.024l-0.005,-0.116l0.064,0l0.02,0.071c0.025,0.015 0.051,0.022 0.077,0.022c0.02,0 0.036,-0.004 0.046,-0.012c0.011,-0.008 0.016,-0.019 0.016,-0.033c0,-0.014 -0.006,-0.026 -0.017,-0.036c-0.012,-0.01 -0.035,-0.022 -0.07,-0.036c-0.048,-0.018 -0.082,-0.037 -0.101,-0.058c-0.019,-0.02 -0.028,-0.047 -0.028,-0.078c0,-0.026 0.008,-0.05 0.024,-0.071c0.017,-0.02 0.039,-0.036 0.069,-0.047c0.029,-0.012 0.063,-0.018 0.101,-0.018c0.021,0 0.042,0.002 0.064,0.006c0.021,0.004 0.039,0.009 0.053,0.016l0.011,0.113l-0.062,0l-0.022,-0.069c-0.006,-0.004 -0.014,-0.007 -0.024,-0.009c-0.009,-0.003 -0.018,-0.004 -0.027,-0.004c-0.019,0 -0.035,0.004 -0.046,0.013c-0.012,0.008 -0.018,0.02 -0.018,0.034c0,0.015 0.007,0.028 0.022,0.039c0.014,0.01 0.04,0.024 0.078,0.039c0.043,0.018 0.073,0.037 0.091,0.056c0.019,0.02 0.028,0.045 0.028,0.074c0,0.041 -0.018,0.074 -0.054,0.099c-0.037,0.025 -0.083,0.038 -0.141,0.038Z" style="fill:#fff;fill-rule:nonzero;"/></g><g transform="matrix(24,0,0,24,431.506,435.595)"><path d="M0.364,-0.082c-0.01,0.028 -0.027,0.05 -0.053,0.067c-0.026,0.016 -0.054,0.025 -0.086,0.025c-0.045,0 -0.082,-0.013 -0.111,-0.04c-0.029,-0.026 -0.044,-0.066 -0.044,-0.118l0.003,-0.218l-0.068,0l0,-0.03l0.167,-0.133l0.03,0l-0.002,0.137l-0.002,0.232c0,0.027 0.007,0.047 0.02,0.058c0.014,0.012 0.032,0.018 0.055,0.018c0.012,0 0.024,-0.002 0.036,-0.007c0.011,-0.004 0.022,-0.011 0.031,-0.019l0.024,0.028Zm-0.213,-0.284l0,-0.062l0.187,0l0,0.062l-0.187,0Z" style="fill:#fff;fill-rule:nonzero;"/></g><g transform="matrix(24,0,0,24,440.397,435.595)"><path d="M0.184,0.008c-0.03,0 -0.056,-0.007 -0.078,-0.02c-0.022,-0.013 -0.038,-0.028 -0.05,-0.047c-0.011,-0.018 -0.017,-0.035 -0.017,-0.051c0,-0.024 0.007,-0.044 0.022,-0.06c0.015,-0.016 0.037,-0.028 0.068,-0.037l0.153,-0.045l0,-0.035c0,-0.014 -0.004,-0.027 -0.013,-0.039c-0.009,-0.012 -0.02,-0.022 -0.035,-0.029c-0.014,-0.008 -0.029,-0.012 -0.046,-0.012c-0.01,0 -0.017,0.002 -0.021,0.007c-0.005,0.005 -0.007,0.015 -0.009,0.029l-0.005,0.06c-0.032,0.006 -0.059,0.005 -0.079,-0.004c-0.021,-0.009 -0.031,-0.023 -0.031,-0.043c0,-0.013 0.006,-0.025 0.02,-0.038c0.013,-0.013 0.029,-0.026 0.048,-0.037c0.019,-0.011 0.039,-0.021 0.059,-0.029c0.02,-0.009 0.038,-0.013 0.054,-0.015c0.057,0 0.103,0.014 0.137,0.04c0.034,0.026 0.051,0.062 0.051,0.106l-0.003,0.136c0,0.018 0.001,0.032 0.002,0.042c0.001,0.01 0.003,0.019 0.006,0.025l0.063,0.012l0,0.041l-0.063,0.028c-0.011,0.005 -0.022,0.008 -0.032,0.011c-0.01,0.003 -0.019,0.004 -0.029,0.004c-0.025,0 -0.043,-0.013 -0.053,-0.039l-0.017,-0.045l0.021,0.005c-0.021,0.024 -0.041,0.044 -0.062,0.058c-0.022,0.014 -0.042,0.021 -0.061,0.021Zm0.049,-0.088c0.01,0 0.018,-0.002 0.027,-0.005c0.008,-0.004 0.016,-0.009 0.023,-0.017l0,-0.095l-0.066,0.011c-0.016,0.003 -0.027,0.008 -0.034,0.016c-0.008,0.008 -0.011,0.018 -0.011,0.03c0,0.016 0.006,0.03 0.018,0.042c0.012,0.012 0.026,0.018 0.043,0.018Z" style="fill:#fff;fill-rule:nonzero;"/></g><g transform="matrix(24,0,0,24,452.644,435.595)"><path d="M0.02,0l-0.003,-0.045l0.06,-0.017c0.001,-0.002 0.001,-0.008 0.002,-0.018c0.001,-0.009 0.001,-0.021 0.002,-0.035c0.001,-0.014 0.001,-0.029 0.001,-0.044l0.001,-0.073c0,-0.013 0,-0.025 -0.001,-0.036c-0.001,-0.011 -0.002,-0.022 -0.003,-0.032c-0.001,-0.011 -0.003,-0.022 -0.005,-0.033l-0.062,-0.014l0,-0.044l0.172,-0.044l0.027,0.017l-0.006,0.057l0.003,0.001c0.021,-0.027 0.042,-0.046 0.065,-0.058c0.022,-0.013 0.046,-0.019 0.071,-0.019c0.025,0 0.049,0.007 0.071,0.02c0.022,0.012 0.04,0.031 0.053,0.057c0.014,0.026 0.02,0.059 0.02,0.099l0.002,0.101c0,0.021 0.001,0.042 0.001,0.061c0.001,0.02 0.002,0.032 0.004,0.037l0.054,0.017l-0.003,0.045l-0.233,0l-0.002,-0.045l0.049,-0.017c0.002,-0.006 0.003,-0.014 0.003,-0.025c0.001,-0.01 0.001,-0.022 0.002,-0.035c0,-0.013 0,-0.025 0,-0.037l-0.001,-0.092c0,-0.023 -0.003,-0.042 -0.01,-0.056c-0.007,-0.013 -0.016,-0.023 -0.027,-0.029c-0.012,-0.007 -0.025,-0.01 -0.039,-0.01c-0.015,0 -0.03,0.004 -0.044,0.012c-0.014,0.007 -0.026,0.017 -0.036,0.03l0,0.144c0,0.021 0,0.042 0.001,0.061c0.001,0.02 0.003,0.032 0.005,0.037l0.054,0.017l-0.003,0.045l-0.245,0Zm0.573,0l-0.003,-0.045l0.051,-0.017c0.001,-0.006 0.002,-0.015 0.003,-0.025c0,-0.011 0.001,-0.023 0.001,-0.036c0,-0.013 0.001,-0.025 0.001,-0.036l-0.002,-0.083c0,-0.025 -0.004,-0.045 -0.011,-0.06c-0.007,-0.016 -0.017,-0.027 -0.029,-0.033c-0.013,-0.007 -0.027,-0.011 -0.042,-0.011c-0.015,0 -0.03,0.004 -0.045,0.011c-0.015,0.006 -0.027,0.017 -0.038,0.03l-0.028,-0.037c0.024,-0.031 0.049,-0.055 0.075,-0.071c0.026,-0.016 0.055,-0.024 0.085,-0.024c0.032,0 0.059,0.007 0.083,0.021c0.024,0.014 0.042,0.034 0.055,0.06c0.013,0.026 0.02,0.058 0.02,0.094l0.002,0.102c0,0.021 0,0.042 0,0.061c0.001,0.02 0.002,0.032 0.004,0.037l0.061,0.017l-0.003,0.045l-0.24,0Z" style="fill:#fff;fill-rule:nonzero;"/></g><g transform="matrix(24,0,0,24,472.724,435.595)"><path d="M0.016,0.215l-0.003,-0.045l0.06,-0.017c0,-0.004 0.001,-0.012 0.001,-0.024c0.001,-0.012 0.002,-0.027 0.002,-0.045c0.001,-0.018 0.001,-0.037 0.002,-0.059c0.001,-0.021 0.001,-0.043 0.001,-0.064l0.002,-0.194c0,-0.019 -0.001,-0.036 -0.002,-0.052c-0.001,-0.015 -0.003,-0.031 -0.007,-0.048l-0.062,-0.014l0,-0.044l0.172,-0.044l0.027,0.017l-0.008,0.06l0.003,0.001c0.016,-0.025 0.035,-0.044 0.059,-0.058c0.023,-0.014 0.048,-0.022 0.074,-0.022c0.031,0 0.06,0.008 0.087,0.024c0.027,0.016 0.049,0.039 0.066,0.07c0.017,0.03 0.026,0.067 0.026,0.111c0,0.042 -0.01,0.081 -0.03,0.118c-0.019,0.036 -0.047,0.065 -0.083,0.088c-0.036,0.022 -0.079,0.033 -0.128,0.033c-0.011,0 -0.022,-0.001 -0.034,-0.003c-0.012,-0.002 -0.024,-0.005 -0.035,-0.009l0,0.062c0,0.021 0.001,0.041 0.002,0.06c0,0.019 0.001,0.031 0.002,0.036l0.08,0.016l-0.003,0.046l-0.271,0Zm0.26,-0.278c0.021,0.001 0.038,-0.004 0.054,-0.014c0.015,-0.009 0.027,-0.024 0.036,-0.045c0.009,-0.021 0.014,-0.048 0.013,-0.08c0.001,-0.034 -0.004,-0.061 -0.014,-0.082c-0.01,-0.02 -0.022,-0.035 -0.037,-0.045c-0.015,-0.01 -0.031,-0.015 -0.049,-0.015c-0.013,0 -0.027,0.004 -0.039,0.011c-0.013,0.006 -0.024,0.016 -0.034,0.027l0,0.223c0.01,0.006 0.021,0.011 0.033,0.015c0.013,0.004 0.025,0.005 0.037,0.005Z" style="fill:#fff;fill-rule:nonzero;"/></g></g></g></svg>