<svg width="399" height="163" viewBox="0 0 399 163" fill="none" xmlns="http://www.w3.org/2000/svg">
<path d="M6 0L0.302666 10.0436L11.8493 9.95583L6 0ZM393 163L398.623 152.915L387.078 153.087L393 163ZM5.21739 6.53914C5.28527 7.54158 5.36886 8.53253 5.46789 9.51214L7.45775 9.31098C7.36097 8.35362 7.27923 7.38468 7.21282 6.40402L5.21739 6.53914ZM6.11811 14.489C6.27818 15.4825 6.45493 16.4634 6.64807 17.4321L8.60946 17.041C8.4212 16.0968 8.24882 15.1402 8.09265 14.1709L6.11811 14.489ZM7.78729 22.3182C8.04885 23.2938 8.32793 24.2561 8.62415 25.2052L10.5333 24.6093C10.2452 23.6862 9.97366 22.75 9.71908 21.8003L7.78729 22.3182ZM10.2812 29.9304C10.6499 30.8743 11.0366 31.804 11.4407 32.7198L13.2705 31.9123C12.878 31.0229 12.5024 30.1197 12.1441 29.2027L10.2812 29.9304ZM13.6245 37.2198C14.0995 38.1142 14.5921 38.9942 15.1019 39.8599L16.8252 38.845C16.3303 38.0045 15.852 37.1502 15.3909 36.2819L13.6245 37.2198ZM17.7999 44.0822C18.3721 44.9101 18.9611 45.7237 19.5663 46.5234L21.1611 45.3165C20.5731 44.5395 20.0009 43.749 19.4451 42.9449L17.7999 44.0822ZM22.7291 50.4112C23.3887 51.1669 24.0637 51.9088 24.7535 52.6373L26.2057 51.2622C25.5342 50.553 24.8774 49.8311 24.2358 49.096L22.7291 50.4112ZM28.3133 56.1586C29.0481 56.8402 29.7967 57.5088 30.5586 58.1647L31.8634 56.6489C31.1199 56.0089 30.3898 55.3568 29.6735 54.6923L28.3133 56.1586ZM34.4415 61.312C35.2356 61.9185 36.042 62.5131 36.86 63.0959L38.0205 61.467C37.2202 60.8968 36.4316 60.3154 35.6554 59.7225L34.4415 61.312ZM41.005 65.8875C41.8443 66.422 42.6941 66.9456 43.5538 67.4584L44.5784 65.7408C43.735 65.2377 42.9018 64.7244 42.0793 64.2005L41.005 65.8875ZM47.9075 69.9204C48.7809 70.3886 49.6631 70.8469 50.5538 71.2956L51.4535 69.5094C50.5776 69.0682 49.7105 68.6177 48.8525 68.1577L47.9075 69.9204ZM55.0616 73.4526C55.9631 73.8623 56.8721 74.263 57.7881 74.6549L58.5748 72.8162C57.6721 72.4299 56.7768 72.0352 55.8891 71.6318L55.0616 73.4526ZM62.4093 76.5359C63.3336 76.8937 64.2641 77.2432 65.2004 77.5848L65.8858 75.7059C64.9614 75.3687 64.0431 75.0237 63.1313 74.6708L62.4093 76.5359ZM69.9071 79.2195C70.8488 79.5307 71.7956 79.8345 72.7471 80.1309L73.342 78.2214C72.4012 77.9283 71.4653 77.6281 70.5347 77.3205L69.9071 79.2195ZM77.5185 81.5465C78.4734 81.8161 79.4324 82.0789 80.3951 82.335L80.9093 80.4022C79.9562 80.1486 79.0069 79.8885 78.0618 79.6217L77.5185 81.5465ZM85.2157 83.5556C86.1807 83.788 87.1488 84.0142 88.1196 84.2342L88.5618 82.2837C87.5995 82.0656 86.6401 81.8415 85.6839 81.6112L85.2157 83.5556ZM92.9776 85.2812C93.9503 85.4803 94.9251 85.6737 95.9016 85.8615L96.2793 83.8975C95.3104 83.7112 94.3434 83.5193 93.3787 83.3219L92.9776 85.2812ZM100.788 86.7534C101.767 86.9227 102.746 87.0866 103.727 87.2456L104.047 85.2713C103.073 85.1135 102.1 84.9507 101.129 84.7827L100.788 86.7534ZM108.635 87.9986C109.618 88.1411 110.601 88.2787 111.584 88.4117L111.852 86.4297C110.875 86.2976 109.899 86.1608 108.922 86.0193L108.635 87.9986ZM116.51 89.0402C117.495 89.1585 118.481 89.2725 119.465 89.3822L119.686 87.3945C118.708 87.2854 117.728 87.1721 116.748 87.0544L116.51 89.0402ZM124.404 89.8987C125.391 89.9954 126.378 90.088 127.362 90.1768L127.542 88.1849C126.562 88.0966 125.581 88.0044 124.599 87.9082L124.404 89.8987ZM132.312 90.5929C133.3 90.6701 134.287 90.7436 135.27 90.8136L135.412 88.8186C134.433 88.7489 133.451 88.6758 132.467 88.5989L132.312 90.5929ZM140.229 91.1395C141.217 91.1992 142.202 91.2556 143.183 91.3089L143.292 89.3119C142.315 89.2588 141.334 89.2026 140.35 89.1432L140.229 91.1395ZM148.151 91.5545C149.142 91.5988 150.128 91.6402 151.109 91.6787L151.187 89.6803C150.21 89.6418 149.227 89.6006 148.24 89.5565L148.151 91.5545ZM156.073 91.853C157.07 91.8839 158.06 91.9122 159.044 91.9381L159.096 89.9388C158.116 89.9129 157.129 89.8847 156.135 89.854L156.073 91.853ZM163.989 92.0504C164.995 92.0698 165.992 92.087 166.981 92.1022L167.012 90.1024C166.025 90.0872 165.03 90.0701 164.027 90.0508L163.989 92.0504ZM171.916 92.1637C172.925 92.1735 173.924 92.1817 174.911 92.1884L174.924 90.1884C173.939 90.1817 172.943 90.1736 171.936 90.1638L171.916 92.1637ZM179.863 92.2119C180.861 92.2148 181.844 92.2167 182.813 92.218L182.816 90.218C181.847 90.2167 180.865 90.2148 179.869 90.2119L179.863 92.2119ZM187.778 92.2202C188.265 92.2202 188.748 92.2202 189.226 92.2202V90.2202C188.748 90.2202 188.265 90.2202 187.778 90.2202L187.778 92.2202ZM189.226 92.2202C189.709 92.2202 190.199 92.2202 190.694 92.2203L190.694 90.2203C190.199 90.2202 189.709 90.2202 189.226 90.2202V92.2202ZM195.769 92.2253C196.753 92.2272 197.756 92.2298 198.776 92.2334L198.783 90.2334C197.761 90.2298 196.758 90.2272 195.773 90.2253L195.769 92.2253ZM203.83 92.2591C204.836 92.266 205.856 92.274 206.89 92.2835L206.908 90.2836C205.873 90.2741 204.851 90.2661 203.844 90.2592L203.83 92.2591ZM211.919 92.3401C212.93 92.3537 213.953 92.3688 214.985 92.3856L215.018 90.3859C213.983 90.369 212.959 90.3539 211.946 90.3402L211.919 92.3401ZM220.011 92.48C221.017 92.5014 222.031 92.5247 223.054 92.5498L223.103 90.5504C222.078 90.5252 221.061 90.5019 220.053 90.4804L220.011 92.48ZM228.097 92.6881C229.101 92.7185 230.112 92.7509 231.128 92.7854L231.196 90.7865C230.177 90.752 229.164 90.7195 228.158 90.689L228.097 92.6881ZM236.177 92.9725C237.181 93.013 238.189 93.0555 239.203 93.1004L239.291 91.1024C238.275 91.0574 237.264 91.0147 236.258 90.9742L236.177 92.9725ZM244.25 93.3413C245.254 93.3928 246.262 93.4466 247.274 93.5029L247.385 91.506C246.37 91.4495 245.359 91.3955 244.352 91.3439L244.25 93.3413ZM252.315 93.8025C253.321 93.8661 254.329 93.9323 255.34 94.0011L255.476 92.0057C254.461 91.9367 253.45 91.8703 252.442 91.8064L252.315 93.8025ZM260.373 94.3648C261.379 94.4417 262.387 94.5214 263.397 94.604L263.56 92.6106C262.546 92.5278 261.535 92.4478 260.526 92.3706L260.373 94.3648ZM268.422 95.0379C269.428 95.1294 270.434 95.2238 271.442 95.3214L271.635 93.3307C270.623 93.2328 269.613 93.1379 268.603 93.0461L268.422 95.0379ZM276.459 95.8323C277.464 95.9397 278.468 96.0503 279.472 96.1642L279.697 94.1769C278.689 94.0626 277.68 93.9515 276.672 93.8437L276.459 95.8323ZM284.482 96.7603C285.483 96.8851 286.483 97.0133 287.483 97.1451L287.745 95.1623C286.74 95.0299 285.735 94.901 284.729 94.7756L284.482 96.7603ZM292.484 97.8354C293.482 97.9796 294.478 98.1274 295.473 98.279L295.775 96.3019C294.775 96.1494 293.773 96.0008 292.77 95.856L292.484 97.8354ZM300.46 99.0739C301.455 99.2395 302.447 99.4092 303.437 99.583L303.782 97.6131C302.787 97.4383 301.789 97.2677 300.789 97.1011L300.46 99.0739ZM308.403 100.494C309.393 100.684 310.38 100.878 311.364 101.077L311.76 99.1165C310.77 98.9166 309.776 98.7211 308.779 98.5301L308.403 100.494ZM316.303 102.119C317.288 102.336 318.269 102.558 319.245 102.785L319.697 100.836C318.713 100.608 317.725 100.385 316.733 100.166L316.303 102.119ZM324.147 103.975C325.125 104.223 326.097 104.476 327.064 104.734L327.581 102.802C326.606 102.541 325.625 102.286 324.639 102.036L324.147 103.975ZM331.92 106.093C332.887 106.376 333.848 106.665 334.802 106.96L335.393 105.049C334.429 104.751 333.459 104.459 332.481 104.173L331.92 106.093ZM339.597 108.513C340.55 108.837 341.496 109.167 342.432 109.503L343.108 107.621C342.16 107.28 341.204 106.946 340.24 106.619L339.597 108.513ZM347.146 111.282C348.08 111.652 349.003 112.029 349.916 112.413L350.692 110.57C349.766 110.18 348.829 109.798 347.883 109.423L347.146 111.282ZM354.521 114.457C355.428 114.881 356.323 115.314 357.206 115.754L358.099 113.965C357.201 113.516 356.29 113.077 355.368 112.645L354.521 114.457ZM361.651 118.105C362.531 118.597 363.395 119.099 364.244 119.61L365.276 117.897C364.408 117.374 363.526 116.862 362.629 116.36L361.651 118.105ZM368.441 122.302C369.278 122.875 370.096 123.459 370.896 124.053L372.089 122.448C371.268 121.838 370.428 121.239 369.57 120.652L368.441 122.302ZM374.78 127.157C375.542 127.814 376.283 128.483 377.001 129.164L378.377 127.713C377.635 127.009 376.871 126.319 376.085 125.642L374.78 127.157ZM380.453 132.732C381.111 133.476 381.744 134.234 382.35 135.005L383.922 133.768C383.291 132.966 382.634 132.18 381.951 131.408L380.453 132.732ZM385.213 139.051C385.741 139.889 386.241 140.741 386.712 141.608L388.47 140.654C387.978 139.747 387.456 138.857 386.904 137.984L385.213 139.051ZM388.818 146.072C389.185 146.984 389.523 147.911 389.829 148.854L391.731 148.236C391.41 147.248 391.057 146.278 390.672 145.324L388.818 146.072ZM391.081 153.619C391.278 154.588 391.444 155.573 391.579 156.573L393.561 156.307C393.42 155.263 393.247 154.234 393.041 153.221L391.081 153.619Z" fill="#455451"/>
</svg>
