<svg width="399" height="163" viewBox="0 0 399 163" fill="none" xmlns="http://www.w3.org/2000/svg">
<path d="M393 0L398.697 10.0436L387.151 9.95583L393 0ZM6 163L0.37674 152.915L11.9225 153.087L6 163ZM393.783 6.53914C393.715 7.54158 393.631 8.53253 393.532 9.51214L391.542 9.31098C391.639 8.35362 391.721 7.38468 391.787 6.40402L393.783 6.53914ZM392.882 14.489C392.722 15.4825 392.545 16.4634 392.352 17.4321L390.391 17.041C390.579 16.0968 390.751 15.1402 390.907 14.1709L392.882 14.489ZM391.213 22.3182C390.951 23.2938 390.672 24.2561 390.376 25.2052L388.467 24.6093C388.755 23.6862 389.026 22.75 389.281 21.8003L391.213 22.3182ZM388.719 29.9304C388.35 30.8743 387.963 31.804 387.559 32.7198L385.73 31.9123C386.122 31.0229 386.498 30.1197 386.856 29.2027L388.719 29.9304ZM385.375 37.2198C384.901 38.1142 384.408 38.9942 383.898 39.8599L382.175 38.845C382.67 38.0045 383.148 37.1502 383.609 36.2819L385.375 37.2198ZM381.2 44.0822C380.628 44.9101 380.039 45.7237 379.434 46.5234L377.839 45.3165C378.427 44.5395 378.999 43.749 379.555 42.9449L381.2 44.0822ZM376.271 50.4112C375.611 51.1669 374.936 51.9088 374.246 52.6373L372.794 51.2622C373.466 50.553 374.123 49.8311 374.764 49.096L376.271 50.4112ZM370.687 56.1586C369.952 56.8402 369.203 57.5088 368.441 58.1647L367.137 56.6489C367.88 56.0089 368.61 55.3568 369.327 54.6923L370.687 56.1586ZM364.559 61.312C363.764 61.9185 362.958 62.5131 362.14 63.0959L360.979 61.467C361.78 60.8968 362.568 60.3154 363.345 59.7225L364.559 61.312ZM357.995 65.8875C357.156 66.422 356.306 66.9456 355.446 67.4584L354.422 65.7408C355.265 65.2377 356.098 64.7244 356.921 64.2005L357.995 65.8875ZM351.093 69.9204C350.219 70.3886 349.337 70.8469 348.446 71.2956L347.547 69.5094C348.422 69.0682 349.289 68.6177 350.148 68.1577L351.093 69.9204ZM343.938 73.4526C343.037 73.8623 342.128 74.263 341.212 74.6549L340.425 72.8162C341.328 72.4299 342.223 72.0352 343.111 71.6318L343.938 73.4526ZM336.591 76.5359C335.666 76.8937 334.736 77.2432 333.8 77.5848L333.114 75.7059C334.039 75.3687 334.957 75.0237 335.869 74.6708L336.591 76.5359ZM329.093 79.2195C328.151 79.5307 327.204 79.8345 326.253 80.1309L325.658 78.2214C326.599 77.9283 327.535 77.6281 328.465 77.3205L329.093 79.2195ZM321.482 81.5465C320.527 81.8161 319.568 82.0789 318.605 82.335L318.091 80.4022C319.044 80.1486 319.993 79.8885 320.938 79.6217L321.482 81.5465ZM313.784 83.5556C312.819 83.788 311.851 84.0142 310.88 84.2342L310.438 82.2837C311.401 82.0656 312.36 81.8415 313.316 81.6112L313.784 83.5556ZM306.022 85.2812C305.05 85.4803 304.075 85.6737 303.098 85.8615L302.721 83.8975C303.69 83.7112 304.657 83.5193 305.621 83.3219L306.022 85.2812ZM298.212 86.7534C297.233 86.9227 296.254 87.0866 295.273 87.2456L294.953 85.2713C295.927 85.1135 296.9 84.9507 297.871 84.7827L298.212 86.7534ZM290.365 87.9986C289.382 88.1411 288.399 88.2787 287.416 88.4117L287.148 86.4297C288.125 86.2976 289.101 86.1608 290.078 86.0193L290.365 87.9986ZM282.49 89.0402C281.505 89.1585 280.519 89.2725 279.535 89.3822L279.314 87.3945C280.292 87.2854 281.272 87.1721 282.252 87.0544L282.49 89.0402ZM274.596 89.8987C273.609 89.9954 272.622 90.088 271.638 90.1768L271.458 88.1849C272.438 88.0966 273.419 88.0044 274.401 87.9082L274.596 89.8987ZM266.688 90.5929C265.7 90.6701 264.713 90.7436 263.73 90.8136L263.588 88.8186C264.567 88.7489 265.549 88.6758 266.533 88.5989L266.688 90.5929ZM258.771 91.1395C257.783 91.1992 256.798 91.2556 255.817 91.3089L255.708 89.3119C256.685 89.2588 257.666 89.2026 258.65 89.1432L258.771 91.1395ZM250.849 91.5545C249.858 91.5988 248.872 91.6402 247.891 91.6787L247.813 89.6803C248.79 89.6418 249.773 89.6006 250.76 89.5565L250.849 91.5545ZM242.927 91.853C241.93 91.8839 240.94 91.9122 239.956 91.9381L239.904 89.9388C240.884 89.9129 241.871 89.8847 242.865 89.854L242.927 91.853ZM235.011 92.0504C234.005 92.0698 233.008 92.087 232.019 92.1022L231.988 90.1024C232.975 90.0872 233.97 90.0701 234.973 90.0508L235.011 92.0504ZM227.084 92.1637C226.075 92.1735 225.076 92.1817 224.089 92.1884L224.076 90.1884C225.061 90.1817 226.057 90.1736 227.064 90.1638L227.084 92.1637ZM219.137 92.2119C218.139 92.2148 217.156 92.2167 216.187 92.218L216.184 90.218C217.153 90.2167 218.135 90.2148 219.131 90.2119L219.137 92.2119ZM211.222 92.2202C210.735 92.2202 210.252 92.2202 209.774 92.2202V90.2202C210.252 90.2202 210.735 90.2202 211.222 90.2202L211.222 92.2202ZM209.774 92.2202C209.291 92.2202 208.801 92.2202 208.306 92.2203L208.306 90.2203C208.801 90.2202 209.291 90.2202 209.774 90.2202V92.2202ZM203.231 92.2253C202.247 92.2272 201.244 92.2298 200.224 92.2334L200.217 90.2334C201.239 90.2298 202.242 90.2272 203.227 90.2253L203.231 92.2253ZM195.17 92.2591C194.164 92.266 193.144 92.274 192.11 92.2835L192.092 90.2836C193.127 90.2741 194.149 90.2661 195.156 90.2592L195.17 92.2591ZM187.081 92.3401C186.07 92.3537 185.047 92.3688 184.015 92.3856L183.982 90.3859C185.017 90.369 186.041 90.3539 187.054 90.3402L187.081 92.3401ZM178.989 92.48C177.983 92.5014 176.969 92.5247 175.946 92.5498L175.897 90.5504C176.922 90.5252 177.939 90.5019 178.947 90.4804L178.989 92.48ZM170.903 92.6881C169.899 92.7185 168.888 92.7509 167.872 92.7854L167.804 90.7865C168.823 90.752 169.836 90.7195 170.842 90.689L170.903 92.6881ZM162.823 92.9725C161.819 93.013 160.811 93.0555 159.797 93.1004L159.709 91.1024C160.725 91.0574 161.736 91.0147 162.742 90.9742L162.823 92.9725ZM154.75 93.3413C153.746 93.3928 152.738 93.4466 151.726 93.5029L151.615 91.506C152.63 91.4495 153.641 91.3955 154.648 91.3439L154.75 93.3413ZM146.685 93.8025C145.679 93.8661 144.671 93.9323 143.66 94.0011L143.524 92.0057C144.539 91.9367 145.55 91.8703 146.558 91.8064L146.685 93.8025ZM138.627 94.3648C137.621 94.4417 136.613 94.5214 135.603 94.604L135.44 92.6106C136.454 92.5278 137.465 92.4478 138.474 92.3706L138.627 94.3648ZM130.578 95.0379C129.572 95.1294 128.566 95.2238 127.558 95.3214L127.365 93.3307C128.377 93.2328 129.387 93.1379 130.397 93.0461L130.578 95.0379ZM122.541 95.8323C121.536 95.9397 120.532 96.0503 119.528 96.1642L119.303 94.1769C120.311 94.0626 121.32 93.9515 122.328 93.8437L122.541 95.8323ZM114.518 96.7603C113.517 96.8851 112.517 97.0133 111.517 97.1451L111.255 95.1623C112.26 95.0299 113.265 94.901 114.271 94.7756L114.518 96.7603ZM106.516 97.8354C105.518 97.9796 104.522 98.1274 103.527 98.279L103.225 96.3019C104.225 96.1494 105.227 96.0008 106.23 95.856L106.516 97.8354ZM98.54 99.0739C97.5454 99.2395 96.5531 99.4092 95.5634 99.583L95.2176 97.6131C96.2131 97.4383 97.2111 97.2677 98.2114 97.1011L98.54 99.0739ZM90.5972 100.494C89.6067 100.684 88.6196 100.878 87.636 101.077L87.2401 99.1165C88.2303 98.9166 89.2239 98.7211 90.2207 98.5301L90.5972 100.494ZM82.6973 102.119C81.7122 102.336 80.7314 102.558 79.7553 102.785L79.3029 100.836C80.2866 100.608 81.2746 100.385 82.2669 100.166L82.6973 102.119ZM74.8528 103.975C73.875 104.223 72.9026 104.476 71.9361 104.734L71.4193 102.802C72.3944 102.541 73.3752 102.286 74.3611 102.036L74.8528 103.975ZM67.0803 106.093C66.1126 106.376 65.1517 106.665 64.1979 106.96L63.6073 105.049C64.5709 104.751 65.5414 104.459 66.5185 104.173L67.0803 106.093ZM59.403 108.513C58.4496 108.837 57.5043 109.167 56.5678 109.503L55.8916 107.621C56.8395 107.28 57.7959 106.946 58.7603 106.619L59.403 108.513ZM51.8536 111.282C50.9202 111.652 49.9969 112.029 49.084 112.413L48.308 110.57C49.2342 110.18 50.1705 109.798 51.1166 109.423L51.8536 111.282ZM44.4793 114.457C43.572 114.881 42.6768 115.314 41.7943 115.754L40.901 113.965C41.7991 113.516 42.7096 113.077 43.6318 112.645L44.4793 114.457ZM37.3485 118.105C36.4692 118.597 35.6049 119.099 34.7561 119.61L33.7244 117.897C34.5917 117.374 35.4742 116.862 36.3712 116.36L37.3485 118.105ZM30.5595 122.302C29.7224 122.875 28.9037 123.459 28.104 124.053L26.9109 122.448C27.7321 121.838 28.5721 121.239 29.43 120.652L30.5595 122.302ZM24.2204 127.157C23.4579 127.814 22.7173 128.483 21.9992 129.164L20.623 127.713C21.3649 127.009 22.1293 126.319 22.9153 125.642L24.2204 127.157ZM18.5469 132.732C17.889 133.476 17.2564 134.234 16.6497 135.005L15.078 133.768C15.7089 132.966 16.3661 132.18 17.0486 131.408L18.5469 132.732ZM13.7872 139.051C13.2586 139.889 12.7586 140.741 12.288 141.608L10.5302 140.654C11.0222 139.747 11.5444 138.857 12.0959 137.984L13.7872 139.051ZM10.1825 146.072C9.81476 146.984 9.47726 147.911 9.17084 148.854L7.26874 148.236C7.58951 147.248 7.94281 146.278 8.32773 145.324L10.1825 146.072ZM7.91855 153.619C7.72183 154.588 7.55585 155.573 7.42142 156.573L5.43921 156.307C5.57953 155.263 5.7529 154.234 5.95856 153.221L7.91855 153.619Z" fill="#455451"/>
</svg>
