<svg width="137" height="121" viewBox="0 0 137 121" fill="none" xmlns="http://www.w3.org/2000/svg">
<path d="M3 56.5101L6.17772 67.6112L14.2027 59.3087L3 56.5101ZM132.505 56.51L121.304 59.3162L129.335 67.6133L132.505 56.51ZM7.417 61.6653C8.23929 62.2888 9.08689 62.8949 9.95827 63.4836L11.0779 61.8264C10.2356 61.2574 9.41769 60.6724 8.62539 60.0717L7.417 61.6653ZM14.3937 66.2189C15.2894 66.7234 16.2044 67.2124 17.1375 67.6858L18.0424 65.9022C17.1343 65.4415 16.2449 64.9662 15.3752 64.4763L14.3937 66.2189ZM21.8462 69.8802C22.7904 70.2838 23.7493 70.6734 24.7219 71.0488L25.4421 69.183C24.4911 68.8159 23.5542 68.4353 22.6324 68.0412L21.8462 69.8802ZM29.6059 72.7798C30.5833 73.097 31.5719 73.401 32.5707 73.692L33.1301 71.7718C32.1503 71.4864 31.181 71.1882 30.2231 70.8775L29.6059 72.7798ZM37.5698 75.0192C38.5705 75.26 39.5795 75.4885 40.5958 75.7046L41.0117 73.7483C40.0125 73.5359 39.0209 73.3113 38.0378 73.0747L37.5698 75.0192ZM45.6706 76.6706C46.6872 76.8421 47.7095 77.0017 48.7368 77.1493L49.0213 75.1696C48.01 75.0243 47.0037 74.8672 46.0033 74.6984L45.6706 76.6706ZM53.8597 77.7827C54.8844 77.8891 55.9127 77.984 56.9437 78.0672L57.1047 76.0737C56.0888 75.9917 55.0758 75.8983 54.0664 75.7934L53.8597 77.7827ZM62.0962 78.3856C63.1266 78.4299 64.1584 78.4627 65.191 78.484L65.2323 76.4845C64.2146 76.4635 63.1976 76.4311 62.1821 76.3875L62.0962 78.3856ZM70.353 78.4946C71.3858 78.4776 72.4181 78.4489 73.4492 78.4087L73.3713 76.4102C72.3552 76.4499 71.3378 76.4781 70.3199 76.4949L70.353 78.4946ZM78.6034 78.1102C79.6336 78.0308 80.6614 77.9397 81.6859 77.8369L81.4861 75.8469C80.4771 75.9482 79.4647 76.0379 78.4498 76.1161L78.6034 78.1102ZM86.8139 77.2192C87.8407 77.0745 88.8628 76.9177 89.8795 76.7487L89.5514 74.7757C88.5513 74.942 87.5455 75.0964 86.5349 75.2387L86.8139 77.2192ZM94.9559 75.7925C95.9733 75.5778 96.9836 75.3502 97.9861 75.1098L97.5196 73.165C96.5352 73.4011 95.5427 73.6246 94.5429 73.8356L94.9559 75.7925ZM102.985 73.784C103.985 73.4925 104.974 73.1873 105.953 72.8684L105.334 70.9668C104.375 71.2791 103.405 71.5782 102.425 71.864L102.985 73.784ZM110.833 71.1293C111.806 70.7513 112.765 70.3585 113.71 69.951L112.918 68.1145C111.996 68.5122 111.059 68.8958 110.109 69.2652L110.833 71.1293ZM118.408 67.7401C119.339 67.2628 120.253 66.7693 121.148 66.2594L120.159 64.5214C119.289 65.0164 118.401 65.496 117.496 65.9603L118.408 67.7401ZM125.568 63.505C126.435 62.9132 127.28 62.3032 128.101 61.6751L126.886 60.0864C126.095 60.6919 125.279 61.2808 124.44 61.853L125.568 63.505Z" fill="#455451"/>
</svg>
