<svg width="201" height="163" viewBox="0 0 201 163" fill="none" xmlns="http://www.w3.org/2000/svg">
<path d="M103.014 0L108.709 10.0451L97.1624 9.95423L103.014 0ZM103.014 163L96.981 153.155L108.524 152.852L103.014 163ZM103.786 6.57741C103.713 7.61059 103.621 8.62396 103.512 9.61791L101.524 9.40063C101.63 8.43208 101.719 7.44362 101.791 6.43481L103.786 6.57741ZM102.804 14.5677C102.619 15.5984 102.415 16.6061 102.19 17.5913L100.24 17.1477C100.457 16.1934 100.656 15.2162 100.835 14.2154L102.804 14.5677ZM100.868 22.4659C100.557 23.4428 100.225 24.3947 99.8731 25.3224L98.0034 24.6125C98.3424 23.7196 98.6622 22.8023 98.9618 21.8599L100.868 22.4659ZM97.8366 29.9821C97.3767 30.9044 96.8942 31.799 96.3903 32.6669L94.6607 31.6627C95.1433 30.8315 95.6057 29.9741 96.0468 29.0895L97.8366 29.9821ZM93.6026 36.9162C92.9935 37.7416 92.3626 38.5386 91.7112 39.3081L90.1847 38.0159C90.8076 37.2801 91.4109 36.518 91.9934 35.7287L93.6026 36.9162ZM88.2154 43.0036C87.4733 43.7069 86.712 44.3827 85.9331 45.0323L84.6522 43.4963C85.3994 42.8731 86.129 42.2254 86.8397 41.5519L88.2154 43.0036ZM81.8763 48.0828C81.0362 48.6525 80.1809 49.1977 79.3119 49.72L78.2817 48.0057C79.1205 47.5016 79.945 46.976 80.7537 46.4275L81.8763 48.0828ZM74.8664 52.1423C73.9605 52.5894 73.0437 53.016 72.1173 53.4233L71.3123 51.5924C72.2128 51.1965 73.1029 50.7824 73.9811 50.3489L74.8664 52.1423ZM67.4323 55.2988C66.4861 55.6433 65.5328 55.971 64.5741 56.2833L63.9547 54.3816C64.8928 54.076 65.8245 53.7557 66.7483 53.4195L67.4323 55.2988ZM59.751 57.7195C58.7807 57.9833 57.8072 58.2339 56.832 58.4727L56.3564 56.53C57.3162 56.2951 58.2733 56.0486 59.2263 55.7895L59.751 57.7195ZM51.937 59.5752C50.9515 59.7795 49.9666 59.9738 48.9838 60.1594L48.6126 58.1941C49.5848 58.0105 50.5581 57.8185 51.5311 57.6169L51.937 59.5752ZM44.0525 61.028C43.059 61.1918 42.0701 61.3487 41.0874 61.5002L40.7826 59.5236C41.7595 59.373 42.7415 59.2171 43.7273 59.0547L44.0525 61.028ZM36.1446 62.2317C35.1515 62.3738 34.1677 62.5127 33.1954 62.6497L32.9163 60.6693C33.8885 60.5323 34.8704 60.3937 35.8611 60.2518L36.1446 62.2317ZM28.2582 63.3523C27.2596 63.4978 26.2778 63.644 25.3147 63.7931L25.0088 61.8166C25.9793 61.6664 26.9672 61.5192 27.9699 61.3732L28.2582 63.3523ZM20.4294 64.613C19.4319 64.797 18.4635 64.9884 17.5268 65.1897L17.1065 63.2344C18.0653 63.0283 19.053 62.8331 20.0664 62.6462L20.4294 64.613ZM12.7596 66.3986C11.7871 66.6928 10.8709 67.0068 10.0149 67.3447L9.28073 65.4843C10.1956 65.1232 11.1644 64.7917 12.1805 64.4843L12.7596 66.3986ZM5.84919 69.5297C5.05735 70.0976 4.38712 70.7111 3.83975 71.3766L2.29515 70.1061C2.96864 69.2873 3.77219 68.5582 4.68353 67.9045L5.84919 69.5297ZM2.09445 75.3598C2.03226 75.7988 2 76.2602 2 76.7458H0C0 76.1715 0.038171 75.6161 0.114226 75.0793L2.09445 75.3598ZM2 76.7458C2 77.1832 2.05588 77.5944 2.16295 77.9832L0.234721 78.5142C0.0783224 77.9462 0 77.3561 0 76.7458H2ZM4.735 81.2252C5.42378 81.702 6.24365 82.1491 7.1946 82.5651L6.39304 84.3974C5.34984 83.9411 4.41233 83.4342 3.59678 82.8697L4.735 81.2252ZM11.7445 84.0722C12.6622 84.3047 13.6376 84.5192 14.6681 84.7166L14.2919 86.6809C13.2278 86.4771 12.2137 86.2543 11.2534 86.011L11.7445 84.0722ZM19.549 85.476C20.474 85.5918 21.4291 85.6976 22.4129 85.7939L22.218 87.7844C21.2179 87.6865 20.2449 87.5787 19.3007 87.4606L19.549 85.476ZM27.362 86.1862C28.3318 86.2469 29.323 86.3004 30.3345 86.3471L30.2422 88.345C29.2206 88.2978 28.2185 88.2437 27.2371 88.1823L27.362 86.1862ZM35.2804 86.5189C36.2684 86.5429 37.2721 86.5616 38.2907 86.5753L38.2639 88.5751C37.2385 88.5613 36.2275 88.5425 35.2318 88.5184L35.2804 86.5189ZM43.2295 86.6035C44.2233 86.602 45.229 86.5966 46.2457 86.5875L46.2637 88.5874C45.2422 88.5966 44.2315 88.602 43.2323 88.6035L43.2295 86.6035ZM51.1871 86.5159C52.1812 86.4964 53.1843 86.4739 54.1956 86.4486L54.2457 88.4479C53.2309 88.4734 52.2242 88.496 51.2262 88.5155L51.1871 86.5159ZM59.1478 86.3048C60.1402 86.2722 61.1393 86.2374 62.1446 86.2005L62.218 88.1991C61.2102 88.2362 60.2085 88.2711 59.2133 88.3037L59.1478 86.3048ZM67.1108 86.0035C68.1011 85.9615 69.0965 85.9178 70.0964 85.8725L70.1869 87.8705C69.1851 87.9158 68.1879 87.9596 67.1955 88.0017L67.1108 86.0035ZM75.0751 85.6367C76.0642 85.5879 77.057 85.5379 78.0529 85.4868L78.1554 87.4842C77.1582 87.5354 76.1642 87.5854 75.1736 87.6343L75.0751 85.6367ZM83.0386 85.2239C84.0279 85.1704 85.0197 85.1162 86.0134 85.0612L86.1238 87.0582C85.1293 87.1132 84.1368 87.1675 83.1465 87.221L83.0386 85.2239ZM90.9969 84.7815C91.9885 84.7251 92.9815 84.6683 93.9754 84.6111L94.0902 86.6078C93.096 86.665 92.1026 86.7218 91.1104 86.7782L90.9969 84.7815ZM98.9488 84.3237C99.4465 84.2949 99.9443 84.266 100.442 84.2371C100.94 84.2082 101.438 84.1793 101.935 84.1505L102.051 86.1471C101.553 86.176 101.056 86.2049 100.558 86.2337C100.06 86.2626 99.5623 86.2915 99.0645 86.3204L98.9488 84.3237ZM106.91 83.863C107.904 83.8059 108.897 83.749 109.89 83.6926L110.003 85.6894C109.011 85.7458 108.018 85.8026 107.025 85.8597L106.91 83.863ZM114.876 83.4127C115.871 83.3577 116.863 83.3034 117.853 83.2499L117.961 85.2469C116.972 85.3004 115.98 85.3547 114.987 85.4096L114.876 83.4127ZM122.845 82.9867C123.842 82.9355 124.836 82.8854 125.826 82.8366L125.925 84.8341C124.936 84.8829 123.943 84.9329 122.947 84.984L122.845 82.9867ZM130.813 82.6004C131.815 82.555 132.812 82.5112 133.804 82.4692L133.889 84.4674C132.899 84.5093 131.903 84.5531 130.903 84.5983L130.813 82.6004ZM138.782 82.2717C139.79 82.2347 140.791 82.1998 141.787 82.1672L141.852 84.1661C140.86 84.1986 139.861 84.2334 138.855 84.2704L138.782 82.2717ZM146.754 82.0229C147.769 81.9975 148.776 81.9749 149.774 81.9553L149.813 83.955C148.819 83.9744 147.816 83.9969 146.804 84.0223L146.754 82.0229ZM154.736 81.8835C155.758 81.8742 156.768 81.8688 157.768 81.8674L157.77 83.8674C156.777 83.8688 155.771 83.8742 154.754 83.8834L154.736 81.8835ZM162.736 81.8958C163.761 81.9095 164.772 81.9283 165.768 81.9525L165.72 83.9519C164.732 83.9279 163.728 83.9092 162.709 83.8956L162.736 81.8958ZM170.758 82.1259C171.779 82.173 172.781 82.2271 173.763 82.2886L173.638 84.2847C172.668 84.224 171.677 84.1704 170.665 84.1237L170.758 82.1259ZM178.782 82.6864C179.782 82.7844 180.755 82.8921 181.699 83.0103L181.451 84.9948C180.526 84.8791 179.571 84.7732 178.587 84.6769L178.782 82.6864ZM186.708 83.7899C187.772 83.9937 188.786 84.2166 189.747 84.4598L189.255 86.3986C188.338 86.1661 187.362 85.9516 186.332 85.7542L186.708 83.7899ZM194.607 86.0734C195.65 86.5298 196.588 87.0366 197.403 87.6011L196.265 89.2456C195.576 88.7689 194.756 88.3217 193.805 87.9058L194.607 86.0734ZM200.765 91.9566C200.922 92.5246 201 93.1147 201 93.725H199C199 93.2877 198.944 92.8765 198.837 92.4876L200.765 91.9566ZM201 93.725C201 94.2822 200.965 94.8233 200.895 95.3488L198.913 95.0857C198.97 94.6511 199 94.198 199 93.725H201ZM198.937 100.266C198.329 101.106 197.6 101.871 196.771 102.57L195.482 101.041C196.203 100.432 196.816 99.7849 197.318 99.0928L198.937 100.266ZM192.457 105.293C191.585 105.717 190.659 106.111 189.687 106.482L188.975 104.613C189.901 104.26 190.772 103.888 191.584 103.494L192.457 105.293ZM184.933 108.024C184.01 108.282 183.058 108.528 182.082 108.765L181.611 106.821C182.568 106.589 183.497 106.349 184.395 106.098L184.933 108.024ZM177.26 109.83C176.32 110.021 175.363 110.207 174.391 110.391L174.019 108.426C174.984 108.243 175.932 108.058 176.862 107.87L177.26 109.83ZM169.57 111.268C168.619 111.436 167.658 111.604 166.688 111.774L166.344 109.803C167.314 109.634 168.273 109.467 169.222 109.299L169.57 111.268ZM161.881 112.617C160.925 112.787 159.965 112.961 159 113.138L158.638 111.171C159.607 110.993 160.572 110.819 161.531 110.648L161.881 112.617ZM154.221 114.054C153.269 114.245 152.317 114.441 151.365 114.645L150.947 112.689C151.908 112.483 152.869 112.285 153.828 112.093L154.221 114.054ZM146.633 115.723C145.689 115.952 144.748 116.19 143.812 116.438L143.3 114.505C144.25 114.253 145.204 114.012 146.161 113.779L146.633 115.723ZM139.158 117.77C138.232 118.057 137.313 118.356 136.403 118.667L135.755 116.775C136.685 116.457 137.623 116.152 138.567 115.86L139.158 117.77ZM131.885 120.356C130.99 120.721 130.107 121.102 129.237 121.499L128.406 119.68C129.302 119.271 130.21 118.88 131.129 118.504L131.885 120.356ZM124.952 123.658C124.108 124.127 123.282 124.616 122.474 125.125L121.408 123.433C122.248 122.903 123.106 122.396 123.98 121.91L124.952 123.658ZM118.57 127.869C117.819 128.459 117.091 129.072 116.386 129.71L115.044 128.227C115.785 127.557 116.549 126.914 117.335 126.297L118.57 127.869ZM113.071 133.107C112.455 133.824 111.866 134.567 111.304 135.338L109.687 134.161C110.281 133.346 110.904 132.561 111.553 131.804L113.071 133.107ZM108.78 139.344C108.333 140.172 107.913 141.028 107.523 141.914L105.693 141.107C106.105 140.173 106.547 139.269 107.02 138.394L108.78 139.344ZM105.883 146.376C105.618 147.26 105.379 148.171 105.166 149.108L103.215 148.666C103.438 147.685 103.689 146.731 103.967 145.802L105.883 146.376ZM104.357 153.807C104.243 154.751 104.153 155.718 104.089 156.71L102.093 156.581C102.16 155.553 102.253 154.548 102.371 153.567L104.357 153.807Z" fill="#455451"/>
</svg>
