<svg width="152" height="170" viewBox="0 0 152 170" fill="none" xmlns="http://www.w3.org/2000/svg">
<path d="M146 0.5L151.685 10.5507L140.138 10.4485L146 0.5ZM93 169.5L87.1342 159.554L98.6808 159.447L93 169.5ZM146.744 7.19675C146.665 8.22363 146.568 9.24444 146.454 10.2591L144.467 10.0354C144.578 9.04417 144.673 8.04691 144.75 7.04367L146.744 7.19675ZM145.727 15.3528C145.552 16.3665 145.359 17.3737 145.149 18.3742L143.191 17.9635C143.396 16.9859 143.585 16.0019 143.756 15.0115L145.727 15.3528ZM143.945 23.375C143.675 24.3672 143.389 25.3525 143.086 26.3307L141.176 25.7396C141.471 24.7832 141.751 23.8202 142.015 22.8504L143.945 23.375ZM141.428 31.1958C141.069 32.1587 140.695 33.1143 140.305 34.0625L138.455 33.3023C138.837 32.3744 139.203 31.4394 139.554 30.4975L141.428 31.1958ZM138.225 38.7582C137.784 39.6855 137.329 40.6052 136.859 41.5173L135.081 40.6022C135.541 39.7085 135.987 38.8075 136.419 37.8993L138.225 38.7582ZM134.395 46.019C133.88 46.9063 133.352 47.7858 132.811 48.6574L131.112 47.6027C131.642 46.7476 132.161 45.8849 132.666 45.0148L134.395 46.019ZM130.003 52.949C129.422 53.7935 128.829 54.63 128.224 55.4585L126.609 54.2797C127.202 53.4658 127.785 52.6442 128.356 51.815L130.003 52.949ZM125.112 59.5308C124.472 60.3311 123.822 61.1233 123.162 61.9073L121.632 60.619C122.281 59.8478 122.921 59.0688 123.55 58.2819L125.112 59.5308ZM119.782 65.7562C119.09 66.5119 118.389 67.2594 117.68 67.9985L116.237 66.6137C116.936 65.8859 117.625 65.15 118.306 64.4061L119.782 65.7562ZM114.065 71.6231C113.328 72.3345 112.583 73.0373 111.83 73.7316L110.474 72.2619C111.215 71.5775 111.95 70.8849 112.676 70.184L114.065 71.6231ZM108.008 77.1331C107.23 77.8004 106.446 78.4591 105.656 79.109L104.385 77.5642C105.165 76.9231 105.938 76.2735 106.705 75.6154L108.008 77.1331ZM101.651 82.2887C100.837 82.9126 100.017 83.5275 99.1934 84.1333L98.0088 82.5219C98.8221 81.9239 99.6307 81.3171 100.434 80.7014L101.651 82.2887ZM95.0265 87.0922C94.1797 87.6729 93.3288 88.2443 92.4743 88.8062L91.3754 87.1352C92.2191 86.5803 93.0593 86.0161 93.8953 85.4428L95.0265 87.0922ZM88.1637 91.5434C87.2864 92.0811 86.4063 92.6089 85.5239 93.1268L84.5115 91.402C85.383 90.8905 86.2522 90.3692 87.1186 89.8382L88.1637 91.5434ZM81.0858 95.6388C80.1796 96.133 79.2719 96.6169 78.3634 97.0901L77.4394 95.3163C78.3367 94.8489 79.2331 94.3711 80.1282 93.883L81.0858 95.6388ZM73.8043 99.3738C72.8725 99.8221 71.9409 100.259 71.0098 100.685L70.178 98.8663C71.0972 98.4459 72.0171 98.0143 72.9371 97.5716L73.8043 99.3738ZM66.3339 102.732C65.3801 103.131 64.4281 103.518 63.4784 103.892L62.7445 102.032C63.6814 101.662 64.6209 101.281 65.5622 100.887L66.3339 102.732ZM58.6887 105.686C57.7164 106.031 56.7479 106.362 55.7838 106.68L55.1571 104.781C56.1071 104.468 57.0618 104.141 58.0204 103.801L58.6887 105.686ZM50.8822 108.194C49.8963 108.478 48.9166 108.746 47.9439 109L47.4389 107.065C48.3954 106.815 49.3593 106.551 50.3297 106.272L50.8822 108.194ZM42.9342 110.19C41.9193 110.407 40.914 110.606 39.9193 110.788L39.5597 108.82C40.5346 108.642 41.5206 108.447 42.5168 108.234L42.9342 110.19ZM34.8645 111.572C33.8134 111.705 32.7772 111.817 31.7572 111.906L31.5822 109.914C32.5759 109.827 33.5868 109.718 34.6135 109.588L34.8645 111.572ZM26.6058 112.174C25.5604 112.188 24.5366 112.176 23.5364 112.137L23.6145 110.138C24.5778 110.176 25.5664 110.188 26.5786 110.174L26.6058 112.174ZM18.359 111.66C17.2962 111.499 16.2689 111.301 15.2805 111.063L15.7476 109.119C16.6765 109.342 17.6475 109.53 18.658 109.682L18.359 111.66ZM10.3042 109.383C9.30234 108.927 8.36258 108.412 7.49158 107.836L8.59447 106.168C9.37115 106.681 10.2183 107.146 11.133 107.563L10.3042 109.383ZM3.53439 104.175C2.88022 103.311 2.32455 102.376 1.87457 101.37L3.70029 100.553C4.08778 101.419 4.56566 102.224 5.12891 102.967L3.53439 104.175ZM0.569061 96.1623C0.523117 95.6209 0.5 95.0668 0.5 94.5H2.5C2.5 95.0124 2.5209 95.51 2.5619 95.9932L0.569061 96.1623ZM0.5 94.5C0.5 93.9389 0.514603 93.3912 0.543579 92.8568L2.54065 92.965C2.5137 93.462 2.5 93.9736 2.5 94.5H0.5ZM1.39368 87.6345C1.71063 86.55 2.10986 85.5446 2.58791 84.6184L4.36514 85.5357C3.94971 86.3406 3.59679 87.2259 3.31337 88.1956L1.39368 87.6345ZM5.96805 80.3458C6.80505 79.6409 7.72296 79.0427 8.71136 78.5475L9.60732 80.3356C8.75299 80.7637 7.96783 81.2764 7.25638 81.8756L5.96805 80.3458ZM13.8487 76.9597C14.8708 76.8021 15.9334 76.716 17.0307 76.698L17.0634 78.6978C16.0493 78.7144 15.078 78.7938 14.1534 78.9363L13.8487 76.9597ZM22.2917 77.0822C23.2942 77.2361 24.3171 77.435 25.3574 77.6775L24.9033 79.6253C23.9097 79.3937 22.9371 79.2047 21.9882 79.059L22.2917 77.0822ZM30.3692 79.1346C31.3246 79.4645 32.2904 79.8266 33.2648 80.2199L32.5161 82.0745C31.572 81.6934 30.6381 81.3434 29.7163 81.025L30.3692 79.1346ZM37.9893 82.3397C38.9016 82.7891 39.8187 83.2638 40.7392 83.7631L39.7855 85.5211C38.8875 85.034 37.9936 84.5713 37.1054 84.1337L37.9893 82.3397ZM45.1972 86.3591C46.0691 86.9016 46.9421 87.4651 47.8148 88.0491L46.7024 89.7113C45.8479 89.1394 44.9936 88.5879 44.1407 88.0573L45.1972 86.3591ZM52.0164 91.0229C52.8297 91.6303 53.641 92.2551 54.4495 92.897L53.206 94.4634C52.4128 93.8337 51.617 93.2209 50.8196 92.6253L52.0164 91.0229ZM58.4035 96.1937C59.177 96.8704 59.9462 97.5626 60.7102 98.2699L59.3515 99.7375C58.6012 99.0429 57.846 98.3633 57.0866 97.699L58.4035 96.1937ZM64.4008 101.848C65.1173 102.575 65.8277 103.316 66.5312 104.07L65.0687 105.434C64.3778 104.693 63.68 103.966 62.9761 103.251L64.4008 101.848ZM69.9553 107.912C70.6202 108.694 71.2771 109.487 71.9252 110.293L70.3668 111.547C69.7303 110.755 69.0851 109.976 68.4321 109.208L69.9553 107.912ZM75.0548 114.374C75.6607 115.203 76.2569 116.043 76.8426 116.895L75.1949 118.028C74.62 117.193 74.0348 116.368 73.4399 115.554L75.0548 114.374ZM79.6597 121.206C80.1994 122.077 80.7278 122.959 81.2443 123.85L79.5139 124.853C79.0073 123.979 78.489 123.114 77.9595 122.259L79.6597 121.206ZM83.7141 128.368C84.1846 129.283 84.6422 130.207 85.0861 131.14L83.2801 132C82.8451 131.085 82.3967 130.18 81.9355 129.283L83.7141 128.368ZM87.1753 135.846C87.5677 136.797 87.9457 137.756 88.3087 138.724L86.436 139.427C86.0808 138.479 85.7107 137.54 85.3265 136.609L87.1753 135.846ZM89.9856 143.601C90.2921 144.58 90.5828 145.567 90.8571 146.561L88.9292 147.093C88.661 146.121 88.3766 145.156 88.0769 144.198L89.9856 143.601ZM92.085 151.57C92.3008 152.575 92.4994 153.587 92.6805 154.606L90.7113 154.956C90.5345 153.961 90.3403 152.972 90.1295 151.989L92.085 151.57ZM93.4302 159.705C93.5497 160.73 93.6509 161.762 93.7335 162.799L91.7398 162.957C91.6592 161.945 91.5603 160.938 91.4437 159.936L93.4302 159.705Z" fill="#455451"/>
</svg>
