<svg width="32" height="96" viewBox="0 0 32 96" fill="none" xmlns="http://www.w3.org/2000/svg">
<path d="M31.9998 6L21.8615 0.472972L22.1441 12.0165L31.9998 6ZM32 90L22.1464 83.98L21.8597 95.5234L32 90ZM25.5046 5.71433C24.5093 5.94192 23.5423 6.22186 22.604 6.55122L23.2663 8.43835C24.1336 8.13394 25.0282 7.87487 25.9504 7.66401L25.5046 5.71433ZM18.0433 8.65858C17.1713 9.16678 16.3314 9.72222 15.5235 10.3213L16.7147 11.9278C17.4649 11.3715 18.2435 10.8568 19.0504 10.3865L18.0433 8.65858ZM11.7712 13.6416C11.0826 14.3614 10.4249 15.1172 9.79795 15.9057L11.3634 17.1504C11.9537 16.408 12.5714 15.6983 13.2163 15.0242L11.7712 13.6416ZM6.97808 20.0044C6.47324 20.8528 5.99623 21.7263 5.54694 22.6219L7.33462 23.5187C7.76322 22.6643 8.21731 21.8329 8.69679 21.0272L6.97808 20.0044ZM3.57088 27.1641C3.22625 28.0851 2.90677 29.0225 2.61236 29.9738L4.52295 30.5651C4.80626 29.6496 5.11331 28.7489 5.44402 27.8651L3.57088 27.1641ZM1.36646 34.7523C1.16029 35.7132 0.977526 36.6837 0.818116 37.6615L2.79206 37.9833C2.94622 37.0377 3.12287 36.0998 3.32196 35.1719L1.36646 34.7523ZM0.219358 42.5543C0.138175 43.5351 0.0795396 44.5198 0.0434291 45.5061L2.04209 45.5792C2.07709 44.6234 2.1339 43.6694 2.21254 42.7192L0.219358 42.5543ZM0.0500917 50.4323C0.0888495 51.4183 0.150098 52.4027 0.233836 53.3834L2.22658 53.2133C2.14546 52.2632 2.08611 51.3094 2.04855 50.3537L0.0500917 50.4323ZM0.844645 58.2745C1.00627 59.2517 1.19111 60.2217 1.39921 61.1821L3.35385 60.7586C3.15286 59.8309 2.97417 58.8934 2.81784 57.9482L0.844645 58.2745ZM2.65324 65.9582C2.94888 66.9088 3.26935 67.8455 3.61471 68.766L5.48724 68.0634C5.1557 67.1798 4.8476 66.2793 4.56302 65.3642L2.65324 65.9582ZM5.59229 73.3071C6.04132 74.2025 6.51771 75.0759 7.02157 75.9244L8.74121 74.9032C8.26241 74.0969 7.80867 73.2652 7.38012 72.4106L5.59229 73.3071ZM9.83453 80.027C10.4596 80.8168 11.1151 81.5741 11.8011 82.2956L13.2504 80.9174C12.6077 80.2414 11.9918 79.53 11.4028 78.7858L9.83453 80.027ZM15.5402 85.6288C16.346 86.2314 17.1836 86.7905 18.0529 87.3022L19.0675 85.5786C18.263 85.1051 17.4865 84.587 16.738 84.0271L15.5402 85.6288ZM22.6054 89.4289C23.5433 89.7621 24.5097 90.0454 25.5043 90.2758L25.9556 88.3274C25.0349 88.1141 24.1414 87.8521 23.2749 87.5443L22.6054 89.4289Z" fill="#455451"/>
</svg>
